<?xml version="1.0" encoding="UTF-8"?>
<svg width="47px" height="47px" viewBox="0 0 47 47" version="1.1" xmlns="http://www.w3.org/2000/svg" xmlns:xlink="http://www.w3.org/1999/xlink">
    <!-- Generator: Sketch 58 (84663) - https://sketch.com -->
    <title>iconfinder_cell-6-2_234773</title>
    <desc>Created with Sketch.</desc>
    <g id="Admin" stroke="none" stroke-width="1" fill="none" fill-rule="evenodd">
        <g id="Admin-HomePage" transform="translate(-489.000000, -923.000000)" stroke="#231F20" stroke-width="2">
            <g id="tutor" transform="translate(98.000000, 812.000000)">
                <g id="add-tutor" transform="translate(293.000000, 67.000000)">
                    <g id="iconfinder_cell-6-2_234773" transform="translate(99.000000, 45.000000)">
                        <circle id="Oval" cx="35.5" cy="35.5" r="9.5"></circle>
                        <path d="M35.5,31 L35.5,41" id="Path" stroke-linecap="round" stroke-linejoin="round"></path>
                        <path d="M41,35.5 L31,35.5" id="Path" stroke-linecap="round" stroke-linejoin="round"></path>
                        <path d="M26,24.8463341 C24.4992785,24.3468367 23.0812498,23.7486732 21.4388786,23.1250723 L21.4388786,18.5000964 C21.4388786,18.5000964 24.1355832,17.124166 24.1355832,12.4961068 C25.6462585,12.4961068 25.6462585,8.46929443 24.1355832,8.46929443 C24.1355832,8.01527596 25.7358424,5.34589403 25.1010984,2.77671991 C24.1868834,-0.925573304 13.4651471,-0.925573304 12.5509321,2.77671991 C7.97755986,1.8509539 10.6199016,7.98829694 10.6199016,8.60804371 C9.10769503,8.60804371 9.10769503,12.495336 10.6199016,12.495336 C10.6199016,17.1226244 13.7821362,19.2701548 13.7821362,19.2701548 L13.7821362,23.1243014 C8.41782254,25.1770199 1.76105074,26.5999708 0.96551521,29.0180624 C0.0505417734,31.7961259 0,37 0,37 L19.9075301,37" id="Path" stroke-linejoin="round"></path>
                    </g>
                </g>
            </g>
        </g>
    </g>
</svg>