<?xml version="1.0" encoding="UTF-8"?>
<svg width="45px" height="45px" viewBox="0 0 45 45" version="1.1" xmlns="http://www.w3.org/2000/svg" xmlns:xlink="http://www.w3.org/1999/xlink">
    <!-- Generator: Sketch 58 (84663) - https://sketch.com -->
    <title>iconfinder_Add-Users_2151306</title>
    <desc>Created with Sketch.</desc>
    <g id="Admin" stroke="none" stroke-width="1" fill="none" fill-rule="evenodd">
        <g id="Admin-HomePage" transform="translate(-490.000000, -603.000000)" fill="#000000" fill-rule="nonzero">
            <g id="student" transform="translate(98.000000, 494.000000)">
                <g id="add-student" transform="translate(293.000000, 65.000000)">
                    <g id="iconfinder_Add-Users_2151306" transform="translate(99.000000, 44.000000)">
                        <path d="M35.1,45 C33.3,45 31.626,44.514 30.168,43.686 C29.682,44.478 28.8,45 27.828,45 L2.79,45 C1.278,45 0,43.722 0,42.228 L0,41.796 C0,36 5.4,33.696 8.622,32.31 C10.944,31.32 10.944,30.384 10.944,29.826 C10.944,29.088 10.098,28.224 9.468,27.648 C7.452,25.812 7.2,23.238 7.2,21.204 C7.2,16.29 10.674,12.6 15.3,12.6 C19.422,12.6 22.644,15.552 23.274,19.656 C25.416,18.702 25.416,17.82 25.416,17.226 C25.416,16.524 24.606,15.696 23.904,15.048 C21.87,13.194 21.618,10.638 21.618,8.604 C21.618,3.69 25.092,0 29.718,0 C34.326,0 37.8,3.69 37.8,8.604 C37.8,11.412 36.99,13.518 35.316,15.048 C34.758,15.57 34.074,16.362 34.074,17.226 C34.074,17.964 34.074,18.792 36.252,19.71 C39.744,21.204 45,23.436 45,29.196 L45,29.628 C45,30.312 44.748,30.942 44.298,31.446 C44.748,32.58 45,33.822 45,35.1 C45,40.554 40.554,45 35.1,45 Z M35.1,27 C30.636,27 27,30.636 27,35.1 C27,39.564 30.636,43.2 35.1,43.2 C39.564,43.2 43.2,39.564 43.2,35.1 C43.2,30.636 39.564,27 35.1,27 Z M15.3,14.4 C11.646,14.4 9,17.262 9,21.204 C9,23.706 9.504,25.236 10.692,26.316 C11.646,27.198 12.744,28.386 12.744,29.826 C12.744,31.68 11.7,32.958 9.342,33.966 C5.364,35.658 1.8,37.53 1.8,41.796 L1.8,42.228 C1.8,42.75 2.268,43.2 2.79,43.2 L27.828,43.2 C28.206,43.2 28.53,42.966 28.692,42.642 C26.766,41.004 25.488,38.664 25.236,36.018 C23.976,35.19 22.518,34.542 21.132,33.966 C18.252,32.742 17.874,31.248 17.874,29.826 C17.874,28.62 18.504,27.414 19.692,26.316 C20.97,25.146 21.6,23.472 21.6,21.204 C21.6,17.262 18.954,14.4 15.3,14.4 Z M23.4,21.6 C23.328,24.192 22.5,26.208 20.916,27.648 C20.358,28.17 19.674,28.962 19.674,29.826 C19.674,30.564 19.674,31.392 21.852,32.31 C22.986,32.796 24.156,33.3 25.272,33.93 C25.848,29.016 30.042,25.2 35.1,25.2 C38.448,25.2 41.4,26.874 43.2,29.412 L43.2,29.196 C43.2,24.984 39.582,23.094 35.532,21.366 C32.67,20.142 32.274,18.648 32.274,17.226 C32.274,16.02 32.886,14.832 34.092,13.716 C35.37,12.546 36,10.872 36,8.604 C36,4.662 33.354,1.8 29.718,1.8 C26.064,1.8 23.418,4.662 23.418,8.604 C23.418,11.106 23.922,12.636 25.128,13.716 C26.172,14.67 27.216,15.84 27.216,17.226 C27.216,18.558 26.82,20.106 23.886,21.366 C23.778,21.402 23.4,21.6 23.4,21.6 Z M36,39.6 L34.2,39.6 L34.2,36 L30.6,36 L30.6,34.2 L34.2,34.2 L34.2,30.6 L36,30.6 L36,34.2 L39.6,34.2 L39.6,36 L36,36 L36,39.6 Z" id="Shape"></path>
                    </g>
                </g>
            </g>
        </g>
    </g>
</svg>