<?xml version="1.0" encoding="UTF-8"?>
<svg width="39px" height="45px" viewBox="0 0 39 45" version="1.1" xmlns="http://www.w3.org/2000/svg" xmlns:xlink="http://www.w3.org/1999/xlink">
    <!-- Generator: Sketch 58 (84663) - https://sketch.com -->
    <title>iconfinder_206_-_Books_1739028</title>
    <desc>Created with Sketch.</desc>
    <g id="Admin" stroke="none" stroke-width="1" fill="none" fill-rule="evenodd">
        <g id="Admin-HomePage" transform="translate(-493.000000, -284.000000)" fill="#000000" fill-rule="nonzero">
            <g id="course" transform="translate(98.000000, 175.000000)">
                <g id="add-course" transform="translate(293.000000, 66.000000)">
                    <g id="iconfinder_206_-_Books_1739028" transform="translate(102.000000, 43.000000)">
                        <path d="M3.08888053,0.63965956 L36.4571766,0.63965956 C37.0442272,0.63965956 37.5802299,0.87788299 37.971597,1.26925005 C38.3629641,1.66061712 38.6011875,2.19661983 38.6011875,2.78367043 L38.6011875,42.0565044 C38.6011875,42.643555 38.3629641,43.1795577 37.971597,43.5709247 C37.5802299,43.9622918 37.0442272,44.2005152 36.4571766,44.2005152 L3.08888053,44.2005152 C2.50182994,44.2005152 1.96582722,43.9622918 1.57446016,43.5709247 C1.1830931,43.1795577 0.944869666,42.643555 0.944869666,42.0565044 L0.944869666,2.78367043 C0.944869666,2.19661983 1.1830931,1.66061712 1.57446016,1.26925005 C1.96582722,0.87788299 2.50182994,0.63965956 3.08888053,0.63965956 Z M36.4571766,2.0009363 L3.08888053,2.0009363 C2.87618104,2.0009363 2.68049751,2.0860161 2.53586186,2.23065175 C2.3912262,2.3752874 2.30614641,2.57097093 2.30614641,2.78367043 L2.30614641,42.0565044 C2.30614641,42.2692039 2.3912262,42.4648874 2.53586186,42.609523 C2.68049751,42.7541587 2.87618104,42.8392385 3.08888053,42.8392385 L36.4571766,42.8392385 C36.6698761,42.8392385 36.8655596,42.7541587 37.0101953,42.609523 C37.1548309,42.4648874 37.2399107,42.2692039 37.2399107,42.0565044 L37.2399107,2.78367043 C37.2399107,2.57097093 37.1548309,2.3752874 37.0101953,2.23065175 C36.8655596,2.0860161 36.6698761,2.0009363 36.4571766,2.0009363 Z" id="Shape"></path>
                        <path d="M1.62550804,31.5661655 C1.25115693,31.5661655 0.944869666,31.8724528 0.944869666,32.2468039 C0.944869666,32.621155 1.25115693,32.9274422 1.62550804,32.9274422 L37.9205491,32.9274422 C38.2949002,32.9274422 38.6011875,32.621155 38.6011875,32.2468039 C38.6011875,31.8724528 38.2949002,31.5661655 37.9205491,31.5661655 L1.62550804,31.5661655 Z" id="Path"></path>
                        <path d="M8.14262043,1.32029793 C8.14262043,0.945946827 7.83633316,0.63965956 7.46198206,0.63965956 C7.08763095,0.63965956 6.78134369,0.945946827 6.78134369,1.32029793 L6.78134369,32.2468039 C6.78134369,32.621155 7.08763095,32.9274422 7.46198206,32.9274422 C7.83633316,32.9274422 8.14262043,32.621155 8.14262043,32.2468039 L8.14262043,1.32029793 Z" id="Path"></path>
                        <path d="M14.3109057,10.8152032 C13.9365546,10.8152032 13.6302673,11.1214905 13.6302673,11.4958416 C13.6302673,11.8701927 13.9365546,12.1764799 14.3109057,12.1764799 L27.932181,12.1764799 C28.3065321,12.1764799 28.6128194,11.8701927 28.6128194,11.4958416 C28.6128194,11.1214905 28.3065321,10.8152032 27.932181,10.8152032 L14.3109057,10.8152032 Z" id="Path"></path>
                        <path d="M14.3109057,14.4651264 C13.9365546,14.4651264 13.6302673,14.7714137 13.6302673,15.1457648 C13.6302673,15.5201159 13.9365546,15.8264032 14.3109057,15.8264032 L29.2679338,15.8264032 C29.6422849,15.8264032 29.9485722,15.5201159 29.9485722,15.1457648 C29.9485722,14.7714137 29.6422849,14.4651264 29.2679338,14.4651264 L14.3109057,14.4651264 Z" id="Path"></path>
                        <path d="M14.3109057,18.1235577 C13.9365546,18.1235577 13.6302673,18.429845 13.6302673,18.8041961 C13.6302673,19.1785472 13.9365546,19.4848344 14.3109057,19.4848344 L31.0801335,19.4848344 C31.4544846,19.4848344 31.7607719,19.1785472 31.7607719,18.8041961 C31.7607719,18.429845 31.4544846,18.1235577 31.0801335,18.1235577 L14.3109057,18.1235577 Z" id="Path"></path>
                        <path d="M1.62550804,36.9857485 C1.25115693,36.9857485 0.944869666,37.2920358 0.944869666,37.6663869 C0.944869666,38.040738 1.25115693,38.3470253 1.62550804,38.3470253 L37.9205491,38.3470253 C38.2949002,38.3470253 38.6011875,38.040738 38.6011875,37.6663869 C38.6011875,37.2920358 38.2949002,36.9857485 37.9205491,36.9857485 L1.62550804,36.9857485 Z" id="Path"></path>
                    </g>
                </g>
            </g>
        </g>
    </g>
</svg>