<?xml version="1.0" encoding="UTF-8"?>
<svg width="100px" height="150px" viewBox="0 0 50 50" version="1.1" xmlns="http://www.w3.org/2000/svg" xmlns:xlink="http://www.w3.org/1999/xlink">
    <!-- Generator: Sketch 58 (84663) - https://sketch.com -->
    <title>black</title>
    <desc>Created with Sketch.</desc>

    <g id="Admin" stroke="none" stroke-width="1" fill="none" fill-rule="evenodd">
        <g id="Admin-HomePage" transform="translate(-489.000000, -923.000000)" fill="#000000" fill-rule="nonzero">
            <g id="tutor" transform="translate(98.000000, 812.000000)">
                <g id="add-tutor" transform="translate(293.000000, 67.000000)">
                    <g id="iconfinder_cell-6-2_234773" transform="translate(99.000000, 45.000000)">
                        
                        <path d="M43.93125,17.36875 C44.3026282,17.3653582 44.6028582,17.0651282 44.6062792,16.69375 L44.6062792,3.0625 C44.5959458,1.59246587 43.4013202,0.406220582 41.93125,0.406220582 L3.06875,0.406220582 C2.3615296,0.40292775 1.68204544,0.681115171 1.18020389,1.17943915 C0.678362328,1.67776312 0.395402357,2.35527372 0.39375,3.0625 L0.39375,37.9 C0.378598618,38.6185771 0.653928005,39.3128893 1.1574243,39.8257968 C1.66092059,40.3387042 2.35001558,40.6268429 3.06875,40.625 L16.725,40.625 L15.38125,43.31875 L11.875,43.31875 C11.6944242,43.3135126 11.5196754,43.3829452 11.3919353,43.5106853 C11.2641952,43.6384254 11.1947626,43.8131742 11.2,43.99375 C11.1994397,44.1685485 11.2721059,44.3355938 11.4003668,44.4543539 C11.5286277,44.573114 11.700761,44.6327348 11.875,44.61875 L33.125,44.61875 C33.2982011,44.6309044 33.4686527,44.5704622 33.5955048,44.4519089 C33.7223569,44.3333555 33.7941759,44.1673765 33.79375,43.99375 C33.8188957,43.8065324 33.7580187,43.6179861 33.6281383,43.4808226 C33.4982578,43.3436592 33.3133099,43.2725959 33.125,43.2875 L29.6,43.2875 L28.275,40.625 L41.93125,40.625 C42.6434491,40.6233476 43.3257288,40.3384122 43.827569,39.8330543 C44.3294093,39.3276965 44.6095722,38.6434432 44.6062792,37.93125 L44.6062792,23.63125 C44.5959539,21.1167421 42.5582697,19.0818492 40.04375,19.075 L31.81875,19.075 C30.9364186,19.0650625 30.0895331,18.7263083 29.44375,18.125 L23.125,11.7375 C22.0894661,10.7140473 20.4203277,10.7238411 19.396875,11.759375 C18.3734223,12.7949089 18.3832161,14.4640473 19.41875,15.4875 L28.73125,24.80625 C29.2184598,25.3095445 29.4936721,25.980794 29.5,26.68125 L29.5,34.56875 L1.725,34.56875 L1.725,3.0625 C1.73833427,2.3259613 2.3322113,1.73208427 3.06875,1.71875 L41.93125,1.71875 C42.6632227,1.73559086 43.2496956,2.33036291 43.25625,3.0625 L43.25625,16.69375 C43.2596418,17.0651282 43.5598718,17.3653582 43.93125,17.36875 Z M16.875,43.2875 L18.2125,40.625 L26.76875,40.625 L28.125,43.2875 L16.875,43.2875 Z M20.34375,14.5375 C19.8397902,14.0404437 19.8341937,13.2289598 20.33125,12.725 C20.8283063,12.2210402 21.6397902,12.2154437 22.14375,12.7125 L28.5125,19.075 C29.3935241,19.9425086 30.5823331,20.4256729 31.81875,20.41875 L34.4375,20.41875 L34.4375,21.2125 C34.4374683,21.3903933 34.5089805,21.5608251 34.6359401,21.6854336 C34.7628997,21.8100422 34.9346384,21.8783565 35.1125,21.875 C35.2872985,21.8755603 35.4543438,21.8028941 35.5731039,21.6746332 C35.691864,21.5463723 35.7514848,21.374239 35.7375,21.2 L35.7375,20.41875 L40.01875,20.41875 C41.7872988,20.4323548 43.2176452,21.8627012 43.23125,23.63125 L43.23125,34.56875 L40.71875,34.56875 L40.71875,24.30625 C40.6853349,23.9601968 40.3945378,23.6961267 40.046875,23.6961267 C39.6992122,23.6961267 39.4084151,23.9601968 39.375,24.30625 L39.375,34.56875 L30.83125,34.56875 L30.83125,26.68125 C30.8368198,25.6245123 30.4153649,24.6103159 29.6625,23.86875 L20.34375,14.5375 Z M43.2563089,35.9125 L43.2563089,37.9 C43.2595793,38.2541495 43.1216519,38.5950278 42.8729849,38.8472136 C42.6243179,39.0993995 42.2854113,39.2421029 41.93125,39.24375 L3.06875,39.24375 C2.32661737,39.24375 1.725,38.6421326 1.725,37.9 L1.725,35.9125 L43.2563089,35.9125 Z" id="Shape"></path>
                        <path d="M31.0312452,13.2875 C31.0347019,15.5364294 32.8593983,17.3573953 35.1083301,17.3562452 C37.3572619,17.355094 39.180094,15.5322619 39.1812452,13.2833301 C39.1823953,11.0343983 37.3614294,9.20970193 35.1125,9.20624519 C34.0295765,9.2045878 32.9905285,9.6340416 32.2247851,10.3997851 C31.4590416,11.1655285 31.0295878,12.2045765 31.0312452,13.2875 Z M37.85,13.2875 C37.85,14.7993795 36.6243795,16.025 35.1125,16.025 C33.6006205,16.025 32.375,14.7993795 32.375,13.2875 C32.375,11.7756205 33.6006205,10.55 35.1125,10.55 C36.6243795,10.55 37.85,11.7756205 37.85,13.2875 L37.85,13.2875 Z" id="Shape"></path>
                        <path d="M35.1125,32.3875 C35.457678,32.3875 35.7375,32.107678 35.7375,31.7625 L35.7375,23.83125 C35.7514848,23.657011 35.691864,23.4848777 35.5731039,23.3566168 C35.4543438,23.2283559 35.2872985,23.1556897 35.1125,23.15625 C34.9319242,23.1510126 34.7571754,23.2204452 34.6294353,23.3481853 C34.5016952,23.4759254 34.4322626,23.6506742 34.4375,23.83125 L34.4375,31.75625 C34.435176,31.9321315 34.5070734,32.1008505 34.635545,32.2209952 C34.7640166,32.34114 34.9371681,32.4015871 35.1125,32.3875 Z" id="Path"></path>
                        <path d="M5.625,11.6625 L11.43125,11.6625 C11.68676,11.6871722 11.9341501,11.5647806 12.0695653,11.3467053 C12.2049805,11.12863 12.2049805,10.85262 12.0695653,10.6345447 C11.9341501,10.4164694 11.68676,10.2940778 11.43125,10.31875 L5.625,10.31875 C5.36948996,10.2940778 5.12209992,10.4164694 4.98668472,10.6345447 C4.85126951,10.85262 4.85126951,11.12863 4.98668472,11.3467053 C5.12209992,11.5647806 5.36948996,11.6871722 5.625,11.6625 Z" id="Path"></path>
                        <path d="M16.10625,15 L5.625,15 C5.25601785,15.0033234 4.95675562,15.2998147 4.95,15.66875 C4.94650595,15.8482545 5.01670819,16.0213525 5.1442502,16.1477136 C5.27179222,16.2740747 5.44553573,16.3426637 5.625,16.3375 L16.125,16.3375 C16.2997985,16.3380603 16.4668438,16.2653941 16.5856039,16.1371332 C16.704364,16.0088723 16.7639848,15.836739 16.75,15.6625 C16.7469093,15.3051307 16.4633833,15.0133467 16.10625,15 L16.10625,15 Z" id="Path"></path>
                        <path d="M19.45625,19.7062499 L15.65625,19.7062499 C15.4789038,19.7061776 15.3090784,19.7778859 15.1854542,19.9050422 C15.0618299,20.0321986 14.994933,20.2039762 15,20.38125 C15.0033918,20.7526282 15.3036218,21.0528582 15.675,21.05625 L19.475,21.05625 C19.8267286,21.0271146 20.0979667,20.7341774 20.1,20.38125 C20.1050361,20.2061238 20.0398374,20.0362547 19.9189229,19.9094706 C19.7980084,19.7826864 19.6314181,19.7095147 19.45625,19.7062499 Z" id="Path"></path>
                        <path d="M5.625,21.05625 L12.0875,21.05625 C12.4548162,21.0433499 12.7495999,20.7485662 12.7625,20.38125 C12.7625,20.0084578 12.4602922,19.70625 12.0875,19.70625 L5.625,19.70625 C5.44494913,19.7028195 5.27125984,19.7728332 5.14392154,19.9001715 C5.01658324,20.0275098 4.94656952,20.2011991 4.95,20.38125 C4.95339179,20.7526282 5.25362179,21.0528582 5.625,21.05625 Z" id="Path"></path>
                        <path d="M5.625,25.73125 L8.75,25.73125 C9.1245181,25.73125 9.428125,25.4276431 9.428125,25.053125 C9.428125,24.6786069 9.1245181,24.375 8.75,24.375 L5.625,24.375 C5.36948996,24.3503278 5.12209992,24.4727194 4.98668472,24.6907947 C4.85126951,24.90887 4.85126951,25.18488 4.98668472,25.4029553 C5.12209992,25.6210306 5.36948996,25.7434222 5.625,25.71875 L5.625,25.73125 Z" id="Path"></path>
                        <path d="M20.1125,25.05625 C20.1102091,24.7045476 19.8382442,24.4135451 19.4875,24.3875 L12.30625,24.3875 C12.05074,24.3628278 11.8033499,24.4852194 11.6679347,24.7032947 C11.5325195,24.92137 11.5325195,25.19738 11.6679347,25.4154553 C11.8033499,25.6335306 12.05074,25.7559222 12.30625,25.73125 L19.45625,25.73125 C19.8202869,25.717895 20.1094029,25.4205186 20.1125,25.05625 Z" id="Path"></path>
                        <path d="M5.625,30.40625 L16.125,30.40625 C16.2997985,30.4068103 16.4668438,30.3341441 16.5856039,30.2058832 C16.704364,30.0776223 16.7639848,29.905489 16.75,29.73125 C16.750756,29.3783416 16.4771532,29.0855867 16.125,29.0625 L5.625,29.0625 C5.25601785,29.0658234 4.95675562,29.3623147 4.95,29.73125 C4.94476258,29.9118258 5.01419524,30.0865746 5.14193532,30.2143147 C5.26967541,30.3420548 5.44442418,30.4114874 5.625,30.40625 Z" id="Path"></path>
                    </g>
                </g>
            </g>
        </g>
    </g>
</svg>




                       


