<?xml version="1.0" encoding="UTF-8"?>
<svg width="46px" height="45px" viewBox="0 0 46 45" version="1.1" xmlns="http://www.w3.org/2000/svg" xmlns:xlink="http://www.w3.org/1999/xlink">
    <!-- Generator: Sketch 58 (84663) - https://sketch.com -->
    <title>iconfinder_search_107183</title>
    <desc>Created with Sketch.</desc>
    <g id="Admin" stroke="none" stroke-width="1" fill="none" fill-rule="evenodd">
        <g id="Admin-HomePage" transform="translate(-783.000000, -284.000000)">
            <g id="course" transform="translate(98.000000, 175.000000)">
                <g id="search" transform="translate(586.000000, 66.000000)">
                    <g id="iconfinder_search_107183" transform="translate(100.000000, 44.000000)">
                        <circle id="Oval" stroke="#231F20" stroke-width="1.5" cx="16" cy="16" r="16"></circle>
                        <circle id="Oval" stroke="#231F20" stroke-width="1.5" cx="16.5" cy="15.5" r="11.5"></circle>
                        <path d="M30.480249,24 L43.0145014,36.5612979 C44.3279355,37.8781127 44.3279355,40.0333616 43.0178822,41.3501764 L42.3569391,42.0111195 C41.0468858,43.3279343 38.8950175,43.3296247 37.579893,42.0161906 L25,29.4464408" id="Path" stroke="#231F20" stroke-width="1.5"></path>
                        <path d="M37,41 L42,36" id="Path" stroke="#231F20" stroke-width="1.5"></path>
                        <path d="M34,39 L39,34" id="Path" stroke="#231F20" stroke-width="1.5"></path>
                        <path d="M15.9053605,7 L16,9.12439637 L15.8512808,9.1313502 C12.3969392,9.29128839 9.72844333,12.3109909 9.88223252,15.8470156 L9.8856125,15.9148155 L8.03507233,16 C8.01479244,15.9495847 8.01141246,15.8835233 8.00803248,15.8296311 C7.90832301,13.5000966 8.74317857,11.3496233 10.162771,9.74850299 C11.5840535,8.15085957 13.5900728,7.10430751 15.8546608,7 L15.9053605,7 Z" id="Path" fill="#231F20" fill-rule="nonzero"></path>
                    </g>
                </g>
            </g>
        </g>
    </g>
</svg>