<?xml version="1.0" encoding="UTF-8"?>
<svg width="822px" height="42px" viewBox="0 0 822 42" version="1.1" xmlns="http://www.w3.org/2000/svg" xmlns:xlink="http://www.w3.org/1999/xlink">
    <!-- Generator: Sketch 58 (84663) - https://sketch.com -->
    <title>Combined Shape</title>
    <desc>Created with Sketch.</desc>
    <g id="Symbols" stroke="none" stroke-width="1" fill="none" fill-rule="evenodd" fill-opacity="0.6">
        <g id="Section-Title-(dashboard)" transform="translate(0.000000, -1.000000)" fill="#000000">
            <g id="title" transform="translate(0.000000, 1.000000)">
                <path d="M821,40 C821.552285,40 822,40.4477153 822,41 C822,41.5522847 821.552285,42 821,42 C820.447715,42 820,41.5522847 820,41 C820,40.4477153 820.447715,40 821,40 Z M811,40 C811.552285,40 812,40.4477153 812,41 C812,41.5522847 811.552285,42 811,42 C810.447715,42 810,41.5522847 810,41 C810,40.4477153 810.447715,40 811,40 Z M801,40 C801.552285,40 802,40.4477153 802,41 C802,41.5522847 801.552285,42 801,42 C800.447715,42 800,41.5522847 800,41 C800,40.4477153 800.447715,40 801,40 Z M791,40 C791.552285,40 792,40.4477153 792,41 C792,41.5522847 791.552285,42 791,42 C790.447715,42 790,41.5522847 790,41 C790,40.4477153 790.447715,40 791,40 Z M781,40 C781.552285,40 782,40.4477153 782,41 C782,41.5522847 781.552285,42 781,42 C780.447715,42 780,41.5522847 780,41 C780,40.4477153 780.447715,40 781,40 Z M771,40 C771.552285,40 772,40.4477153 772,41 C772,41.5522847 771.552285,42 771,42 C770.447715,42 770,41.5522847 770,41 C770,40.4477153 770.447715,40 771,40 Z M761,40 C761.552285,40 762,40.4477153 762,41 C762,41.5522847 761.552285,42 761,42 C760.447715,42 760,41.5522847 760,41 C760,40.4477153 760.447715,40 761,40 Z M751,40 C751.552285,40 752,40.4477153 752,41 C752,41.5522847 751.552285,42 751,42 C750.447715,42 750,41.5522847 750,41 C750,40.4477153 750.447715,40 751,40 Z M741,40 C741.552285,40 742,40.4477153 742,41 C742,41.5522847 741.552285,42 741,42 C740.447715,42 740,41.5522847 740,41 C740,40.4477153 740.447715,40 741,40 Z M731,40 C731.552285,40 732,40.4477153 732,41 C732,41.5522847 731.552285,42 731,42 C730.447715,42 730,41.5522847 730,41 C730,40.4477153 730.447715,40 731,40 Z M721,40 C721.552285,40 722,40.4477153 722,41 C722,41.5522847 721.552285,42 721,42 C720.447715,42 720,41.5522847 720,41 C720,40.4477153 720.447715,40 721,40 Z M711,40 C711.552285,40 712,40.4477153 712,41 C712,41.5522847 711.552285,42 711,42 C710.447715,42 710,41.5522847 710,41 C710,40.4477153 710.447715,40 711,40 Z M701,40 C701.552285,40 702,40.4477153 702,41 C702,41.5522847 701.552285,42 701,42 C700.447715,42 700,41.5522847 700,41 C700,40.4477153 700.447715,40 701,40 Z M691,40 C691.552285,40 692,40.4477153 692,41 C692,41.5522847 691.552285,42 691,42 C690.447715,42 690,41.5522847 690,41 C690,40.4477153 690.447715,40 691,40 Z M681,40 C681.552285,40 682,40.4477153 682,41 C682,41.5522847 681.552285,42 681,42 C680.447715,42 680,41.5522847 680,41 C680,40.4477153 680.447715,40 681,40 Z M671,40 C671.552285,40 672,40.4477153 672,41 C672,41.5522847 671.552285,42 671,42 C670.447715,42 670,41.5522847 670,41 C670,40.4477153 670.447715,40 671,40 Z M661,40 C661.552285,40 662,40.4477153 662,41 C662,41.5522847 661.552285,42 661,42 C660.447715,42 660,41.5522847 660,41 C660,40.4477153 660.447715,40 661,40 Z M651,40 C651.552285,40 652,40.4477153 652,41 C652,41.5522847 651.552285,42 651,42 C650.447715,42 650,41.5522847 650,41 C650,40.4477153 650.447715,40 651,40 Z M641,40 C641.552285,40 642,40.4477153 642,41 C642,41.5522847 641.552285,42 641,42 C640.447715,42 640,41.5522847 640,41 C640,40.4477153 640.447715,40 641,40 Z M631,40 C631.552285,40 632,40.4477153 632,41 C632,41.5522847 631.552285,42 631,42 C630.447715,42 630,41.5522847 630,41 C630,40.4477153 630.447715,40 631,40 Z M621,40 C621.552285,40 622,40.4477153 622,41 C622,41.5522847 621.552285,42 621,42 C620.447715,42 620,41.5522847 620,41 C620,40.4477153 620.447715,40 621,40 Z M611,40 C611.552285,40 612,40.4477153 612,41 C612,41.5522847 611.552285,42 611,42 C610.447715,42 610,41.5522847 610,41 C610,40.4477153 610.447715,40 611,40 Z M601,40 C601.552285,40 602,40.4477153 602,41 C602,41.5522847 601.552285,42 601,42 C600.447715,42 600,41.5522847 600,41 C600,40.4477153 600.447715,40 601,40 Z M591,40 C591.552285,40 592,40.4477153 592,41 C592,41.5522847 591.552285,42 591,42 C590.447715,42 590,41.5522847 590,41 C590,40.4477153 590.447715,40 591,40 Z M581,40 C581.552285,40 582,40.4477153 582,41 C582,41.5522847 581.552285,42 581,42 C580.447715,42 580,41.5522847 580,41 C580,40.4477153 580.447715,40 581,40 Z M571,40 C571.552285,40 572,40.4477153 572,41 C572,41.5522847 571.552285,42 571,42 C570.447715,42 570,41.5522847 570,41 C570,40.4477153 570.447715,40 571,40 Z M561,40 C561.552285,40 562,40.4477153 562,41 C562,41.5522847 561.552285,42 561,42 C560.447715,42 560,41.5522847 560,41 C560,40.4477153 560.447715,40 561,40 Z M551,40 C551.552285,40 552,40.4477153 552,41 C552,41.5522847 551.552285,42 551,42 C550.447715,42 550,41.5522847 550,41 C550,40.4477153 550.447715,40 551,40 Z M271,40 C271.552285,40 272,40.4477153 272,41 C272,41.5522847 271.552285,42 271,42 C270.447715,42 270,41.5522847 270,41 C270,40.4477153 270.447715,40 271,40 Z M261,40 C261.552285,40 262,40.4477153 262,41 C262,41.5522847 261.552285,42 261,42 C260.447715,42 260,41.5522847 260,41 C260,40.4477153 260.447715,40 261,40 Z M251,40 C251.552285,40 252,40.4477153 252,41 C252,41.5522847 251.552285,42 251,42 C250.447715,42 250,41.5522847 250,41 C250,40.4477153 250.447715,40 251,40 Z M241,40 C241.552285,40 242,40.4477153 242,41 C242,41.5522847 241.552285,42 241,42 C240.447715,42 240,41.5522847 240,41 C240,40.4477153 240.447715,40 241,40 Z M231,40 C231.552285,40 232,40.4477153 232,41 C232,41.5522847 231.552285,42 231,42 C230.447715,42 230,41.5522847 230,41 C230,40.4477153 230.447715,40 231,40 Z M221,40 C221.552285,40 222,40.4477153 222,41 C222,41.5522847 221.552285,42 221,42 C220.447715,42 220,41.5522847 220,41 C220,40.4477153 220.447715,40 221,40 Z M211,40 C211.552285,40 212,40.4477153 212,41 C212,41.5522847 211.552285,42 211,42 C210.447715,42 210,41.5522847 210,41 C210,40.4477153 210.447715,40 211,40 Z M201,40 C201.552285,40 202,40.4477153 202,41 C202,41.5522847 201.552285,42 201,42 C200.447715,42 200,41.5522847 200,41 C200,40.4477153 200.447715,40 201,40 Z M191,40 C191.552285,40 192,40.4477153 192,41 C192,41.5522847 191.552285,42 191,42 C190.447715,42 190,41.5522847 190,41 C190,40.4477153 190.447715,40 191,40 Z M181,40 C181.552285,40 182,40.4477153 182,41 C182,41.5522847 181.552285,42 181,42 C180.447715,42 180,41.5522847 180,41 C180,40.4477153 180.447715,40 181,40 Z M171,40 C171.552285,40 172,40.4477153 172,41 C172,41.5522847 171.552285,42 171,42 C170.447715,42 170,41.5522847 170,41 C170,40.4477153 170.447715,40 171,40 Z M161,40 C161.552285,40 162,40.4477153 162,41 C162,41.5522847 161.552285,42 161,42 C160.447715,42 160,41.5522847 160,41 C160,40.4477153 160.447715,40 161,40 Z M151,40 C151.552285,40 152,40.4477153 152,41 C152,41.5522847 151.552285,42 151,42 C150.447715,42 150,41.5522847 150,41 C150,40.4477153 150.447715,40 151,40 Z M141,40 C141.552285,40 142,40.4477153 142,41 C142,41.5522847 141.552285,42 141,42 C140.447715,42 140,41.5522847 140,41 C140,40.4477153 140.447715,40 141,40 Z M131,40 C131.552285,40 132,40.4477153 132,41 C132,41.5522847 131.552285,42 131,42 C130.447715,42 130,41.5522847 130,41 C130,40.4477153 130.447715,40 131,40 Z M121,40 C121.552285,40 122,40.4477153 122,41 C122,41.5522847 121.552285,42 121,42 C120.447715,42 120,41.5522847 120,41 C120,40.4477153 120.447715,40 121,40 Z M111,40 C111.552285,40 112,40.4477153 112,41 C112,41.5522847 111.552285,42 111,42 C110.447715,42 110,41.5522847 110,41 C110,40.4477153 110.447715,40 111,40 Z M101,40 C101.552285,40 102,40.4477153 102,41 C102,41.5522847 101.552285,42 101,42 C100.447715,42 100,41.5522847 100,41 C100,40.4477153 100.447715,40 101,40 Z M91,40 C91.5522847,40 92,40.4477153 92,41 C92,41.5522847 91.5522847,42 91,42 C90.4477153,42 90,41.5522847 90,41 C90,40.4477153 90.4477153,40 91,40 Z M81,40 C81.5522847,40 82,40.4477153 82,41 C82,41.5522847 81.5522847,42 81,42 C80.4477153,42 80,41.5522847 80,41 C80,40.4477153 80.4477153,40 81,40 Z M71,40 C71.5522847,40 72,40.4477153 72,41 C72,41.5522847 71.5522847,42 71,42 C70.4477153,42 70,41.5522847 70,41 C70,40.4477153 70.4477153,40 71,40 Z M61,40 C61.5522847,40 62,40.4477153 62,41 C62,41.5522847 61.5522847,42 61,42 C60.4477153,42 60,41.5522847 60,41 C60,40.4477153 60.4477153,40 61,40 Z M51,40 C51.5522847,40 52,40.4477153 52,41 C52,41.5522847 51.5522847,42 51,42 C50.4477153,42 50,41.5522847 50,41 C50,40.4477153 50.4477153,40 51,40 Z M41,40 C41.5522847,40 42,40.4477153 42,41 C42,41.5522847 41.5522847,42 41,42 C40.4477153,42 40,41.5522847 40,41 C40,40.4477153 40.4477153,40 41,40 Z M31,40 C31.5522847,40 32,40.4477153 32,41 C32,41.5522847 31.5522847,42 31,42 C30.4477153,42 30,41.5522847 30,41 C30,40.4477153 30.4477153,40 31,40 Z M21,40 C21.5522847,40 22,40.4477153 22,41 C22,41.5522847 21.5522847,42 21,42 C20.4477153,42 20,41.5522847 20,41 C20,40.4477153 20.4477153,40 21,40 Z M11,40 C11.5522847,40 12,40.4477153 12,41 C12,41.5522847 11.5522847,42 11,42 C10.4477153,42 10,41.5522847 10,41 C10,40.4477153 10.4477153,40 11,40 Z M1,40 C1.55228475,40 2,40.4477153 2,41 C2,41.5522847 1.55228475,42 1,42 C0.44771525,42 0,41.5522847 0,41 C0,40.4477153 0.44771525,40 1,40 Z M821,30 C821.552285,30 822,30.4477153 822,31 C822,31.5522847 821.552285,32 821,32 C820.447715,32 820,31.5522847 820,31 C820,30.4477153 820.447715,30 821,30 Z M811,30 C811.552285,30 812,30.4477153 812,31 C812,31.5522847 811.552285,32 811,32 C810.447715,32 810,31.5522847 810,31 C810,30.4477153 810.447715,30 811,30 Z M11,30 C11.5522847,30 12,30.4477153 12,31 C12,31.5522847 11.5522847,32 11,32 C10.4477153,32 10,31.5522847 10,31 C10,30.4477153 10.4477153,30 11,30 Z M21,30 C21.5522847,30 22,30.4477153 22,31 C22,31.5522847 21.5522847,32 21,32 C20.4477153,32 20,31.5522847 20,31 C20,30.4477153 20.4477153,30 21,30 Z M31,30 C31.5522847,30 32,30.4477153 32,31 C32,31.5522847 31.5522847,32 31,32 C30.4477153,32 30,31.5522847 30,31 C30,30.4477153 30.4477153,30 31,30 Z M41,30 C41.5522847,30 42,30.4477153 42,31 C42,31.5522847 41.5522847,32 41,32 C40.4477153,32 40,31.5522847 40,31 C40,30.4477153 40.4477153,30 41,30 Z M51,30 C51.5522847,30 52,30.4477153 52,31 C52,31.5522847 51.5522847,32 51,32 C50.4477153,32 50,31.5522847 50,31 C50,30.4477153 50.4477153,30 51,30 Z M61,30 C61.5522847,30 62,30.4477153 62,31 C62,31.5522847 61.5522847,32 61,32 C60.4477153,32 60,31.5522847 60,31 C60,30.4477153 60.4477153,30 61,30 Z M71,30 C71.5522847,30 72,30.4477153 72,31 C72,31.5522847 71.5522847,32 71,32 C70.4477153,32 70,31.5522847 70,31 C70,30.4477153 70.4477153,30 71,30 Z M81,30 C81.5522847,30 82,30.4477153 82,31 C82,31.5522847 81.5522847,32 81,32 C80.4477153,32 80,31.5522847 80,31 C80,30.4477153 80.4477153,30 81,30 Z M91,30 C91.5522847,30 92,30.4477153 92,31 C92,31.5522847 91.5522847,32 91,32 C90.4477153,32 90,31.5522847 90,31 C90,30.4477153 90.4477153,30 91,30 Z M101,30 C101.552285,30 102,30.4477153 102,31 C102,31.5522847 101.552285,32 101,32 C100.447715,32 100,31.5522847 100,31 C100,30.4477153 100.447715,30 101,30 Z M111,30 C111.552285,30 112,30.4477153 112,31 C112,31.5522847 111.552285,32 111,32 C110.447715,32 110,31.5522847 110,31 C110,30.4477153 110.447715,30 111,30 Z M121,30 C121.552285,30 122,30.4477153 122,31 C122,31.5522847 121.552285,32 121,32 C120.447715,32 120,31.5522847 120,31 C120,30.4477153 120.447715,30 121,30 Z M131,30 C131.552285,30 132,30.4477153 132,31 C132,31.5522847 131.552285,32 131,32 C130.447715,32 130,31.5522847 130,31 C130,30.4477153 130.447715,30 131,30 Z M141,30 C141.552285,30 142,30.4477153 142,31 C142,31.5522847 141.552285,32 141,32 C140.447715,32 140,31.5522847 140,31 C140,30.4477153 140.447715,30 141,30 Z M151,30 C151.552285,30 152,30.4477153 152,31 C152,31.5522847 151.552285,32 151,32 C150.447715,32 150,31.5522847 150,31 C150,30.4477153 150.447715,30 151,30 Z M161,30 C161.552285,30 162,30.4477153 162,31 C162,31.5522847 161.552285,32 161,32 C160.447715,32 160,31.5522847 160,31 C160,30.4477153 160.447715,30 161,30 Z M171,30 C171.552285,30 172,30.4477153 172,31 C172,31.5522847 171.552285,32 171,32 C170.447715,32 170,31.5522847 170,31 C170,30.4477153 170.447715,30 171,30 Z M181,30 C181.552285,30 182,30.4477153 182,31 C182,31.5522847 181.552285,32 181,32 C180.447715,32 180,31.5522847 180,31 C180,30.4477153 180.447715,30 181,30 Z M191,30 C191.552285,30 192,30.4477153 192,31 C192,31.5522847 191.552285,32 191,32 C190.447715,32 190,31.5522847 190,31 C190,30.4477153 190.447715,30 191,30 Z M201,30 C201.552285,30 202,30.4477153 202,31 C202,31.5522847 201.552285,32 201,32 C200.447715,32 200,31.5522847 200,31 C200,30.4477153 200.447715,30 201,30 Z M211,30 C211.552285,30 212,30.4477153 212,31 C212,31.5522847 211.552285,32 211,32 C210.447715,32 210,31.5522847 210,31 C210,30.4477153 210.447715,30 211,30 Z M221,30 C221.552285,30 222,30.4477153 222,31 C222,31.5522847 221.552285,32 221,32 C220.447715,32 220,31.5522847 220,31 C220,30.4477153 220.447715,30 221,30 Z M231,30 C231.552285,30 232,30.4477153 232,31 C232,31.5522847 231.552285,32 231,32 C230.447715,32 230,31.5522847 230,31 C230,30.4477153 230.447715,30 231,30 Z M241,30 C241.552285,30 242,30.4477153 242,31 C242,31.5522847 241.552285,32 241,32 C240.447715,32 240,31.5522847 240,31 C240,30.4477153 240.447715,30 241,30 Z M251,30 C251.552285,30 252,30.4477153 252,31 C252,31.5522847 251.552285,32 251,32 C250.447715,32 250,31.5522847 250,31 C250,30.4477153 250.447715,30 251,30 Z M261,30 C261.552285,30 262,30.4477153 262,31 C262,31.5522847 261.552285,32 261,32 C260.447715,32 260,31.5522847 260,31 C260,30.4477153 260.447715,30 261,30 Z M271,30 C271.552285,30 272,30.4477153 272,31 C272,31.5522847 271.552285,32 271,32 C270.447715,32 270,31.5522847 270,31 C270,30.4477153 270.447715,30 271,30 Z M551,30 C551.552285,30 552,30.4477153 552,31 C552,31.5522847 551.552285,32 551,32 C550.447715,32 550,31.5522847 550,31 C550,30.4477153 550.447715,30 551,30 Z M561,30 C561.552285,30 562,30.4477153 562,31 C562,31.5522847 561.552285,32 561,32 C560.447715,32 560,31.5522847 560,31 C560,30.4477153 560.447715,30 561,30 Z M571,30 C571.552285,30 572,30.4477153 572,31 C572,31.5522847 571.552285,32 571,32 C570.447715,32 570,31.5522847 570,31 C570,30.4477153 570.447715,30 571,30 Z M581,30 C581.552285,30 582,30.4477153 582,31 C582,31.5522847 581.552285,32 581,32 C580.447715,32 580,31.5522847 580,31 C580,30.4477153 580.447715,30 581,30 Z M591,30 C591.552285,30 592,30.4477153 592,31 C592,31.5522847 591.552285,32 591,32 C590.447715,32 590,31.5522847 590,31 C590,30.4477153 590.447715,30 591,30 Z M601,30 C601.552285,30 602,30.4477153 602,31 C602,31.5522847 601.552285,32 601,32 C600.447715,32 600,31.5522847 600,31 C600,30.4477153 600.447715,30 601,30 Z M611,30 C611.552285,30 612,30.4477153 612,31 C612,31.5522847 611.552285,32 611,32 C610.447715,32 610,31.5522847 610,31 C610,30.4477153 610.447715,30 611,30 Z M621,30 C621.552285,30 622,30.4477153 622,31 C622,31.5522847 621.552285,32 621,32 C620.447715,32 620,31.5522847 620,31 C620,30.4477153 620.447715,30 621,30 Z M631,30 C631.552285,30 632,30.4477153 632,31 C632,31.5522847 631.552285,32 631,32 C630.447715,32 630,31.5522847 630,31 C630,30.4477153 630.447715,30 631,30 Z M641,30 C641.552285,30 642,30.4477153 642,31 C642,31.5522847 641.552285,32 641,32 C640.447715,32 640,31.5522847 640,31 C640,30.4477153 640.447715,30 641,30 Z M651,30 C651.552285,30 652,30.4477153 652,31 C652,31.5522847 651.552285,32 651,32 C650.447715,32 650,31.5522847 650,31 C650,30.4477153 650.447715,30 651,30 Z M661,30 C661.552285,30 662,30.4477153 662,31 C662,31.5522847 661.552285,32 661,32 C660.447715,32 660,31.5522847 660,31 C660,30.4477153 660.447715,30 661,30 Z M671,30 C671.552285,30 672,30.4477153 672,31 C672,31.5522847 671.552285,32 671,32 C670.447715,32 670,31.5522847 670,31 C670,30.4477153 670.447715,30 671,30 Z M681,30 C681.552285,30 682,30.4477153 682,31 C682,31.5522847 681.552285,32 681,32 C680.447715,32 680,31.5522847 680,31 C680,30.4477153 680.447715,30 681,30 Z M691,30 C691.552285,30 692,30.4477153 692,31 C692,31.5522847 691.552285,32 691,32 C690.447715,32 690,31.5522847 690,31 C690,30.4477153 690.447715,30 691,30 Z M701,30 C701.552285,30 702,30.4477153 702,31 C702,31.5522847 701.552285,32 701,32 C700.447715,32 700,31.5522847 700,31 C700,30.4477153 700.447715,30 701,30 Z M711,30 C711.552285,30 712,30.4477153 712,31 C712,31.5522847 711.552285,32 711,32 C710.447715,32 710,31.5522847 710,31 C710,30.4477153 710.447715,30 711,30 Z M721,30 C721.552285,30 722,30.4477153 722,31 C722,31.5522847 721.552285,32 721,32 C720.447715,32 720,31.5522847 720,31 C720,30.4477153 720.447715,30 721,30 Z M731,30 C731.552285,30 732,30.4477153 732,31 C732,31.5522847 731.552285,32 731,32 C730.447715,32 730,31.5522847 730,31 C730,30.4477153 730.447715,30 731,30 Z M741,30 C741.552285,30 742,30.4477153 742,31 C742,31.5522847 741.552285,32 741,32 C740.447715,32 740,31.5522847 740,31 C740,30.4477153 740.447715,30 741,30 Z M751,30 C751.552285,30 752,30.4477153 752,31 C752,31.5522847 751.552285,32 751,32 C750.447715,32 750,31.5522847 750,31 C750,30.4477153 750.447715,30 751,30 Z M761,30 C761.552285,30 762,30.4477153 762,31 C762,31.5522847 761.552285,32 761,32 C760.447715,32 760,31.5522847 760,31 C760,30.4477153 760.447715,30 761,30 Z M771,30 C771.552285,30 772,30.4477153 772,31 C772,31.5522847 771.552285,32 771,32 C770.447715,32 770,31.5522847 770,31 C770,30.4477153 770.447715,30 771,30 Z M781,30 C781.552285,30 782,30.4477153 782,31 C782,31.5522847 781.552285,32 781,32 C780.447715,32 780,31.5522847 780,31 C780,30.4477153 780.447715,30 781,30 Z M791,30 C791.552285,30 792,30.4477153 792,31 C792,31.5522847 791.552285,32 791,32 C790.447715,32 790,31.5522847 790,31 C790,30.4477153 790.447715,30 791,30 Z M801,30 C801.552285,30 802,30.4477153 802,31 C802,31.5522847 801.552285,32 801,32 C800.447715,32 800,31.5522847 800,31 C800,30.4477153 800.447715,30 801,30 Z M1,30 C1.55228475,30 2,30.4477153 2,31 C2,31.5522847 1.55228475,32 1,32 C0.44771525,32 0,31.5522847 0,31 C0,30.4477153 0.44771525,30 1,30 Z M811,20 C811.552285,20 812,20.4477153 812,21 C812,21.5522847 811.552285,22 811,22 C810.447715,22 810,21.5522847 810,21 C810,20.4477153 810.447715,20 811,20 Z M801,20 C801.552285,20 802,20.4477153 802,21 C802,21.5522847 801.552285,22 801,22 C800.447715,22 800,21.5522847 800,21 C800,20.4477153 800.447715,20 801,20 Z M791,20 C791.552285,20 792,20.4477153 792,21 C792,21.5522847 791.552285,22 791,22 C790.447715,22 790,21.5522847 790,21 C790,20.4477153 790.447715,20 791,20 Z M781,20 C781.552285,20 782,20.4477153 782,21 C782,21.5522847 781.552285,22 781,22 C780.447715,22 780,21.5522847 780,21 C780,20.4477153 780.447715,20 781,20 Z M771,20 C771.552285,20 772,20.4477153 772,21 C772,21.5522847 771.552285,22 771,22 C770.447715,22 770,21.5522847 770,21 C770,20.4477153 770.447715,20 771,20 Z M761,20 C761.552285,20 762,20.4477153 762,21 C762,21.5522847 761.552285,22 761,22 C760.447715,22 760,21.5522847 760,21 C760,20.4477153 760.447715,20 761,20 Z M751,20 C751.552285,20 752,20.4477153 752,21 C752,21.5522847 751.552285,22 751,22 C750.447715,22 750,21.5522847 750,21 C750,20.4477153 750.447715,20 751,20 Z M741,20 C741.552285,20 742,20.4477153 742,21 C742,21.5522847 741.552285,22 741,22 C740.447715,22 740,21.5522847 740,21 C740,20.4477153 740.447715,20 741,20 Z M731,20 C731.552285,20 732,20.4477153 732,21 C732,21.5522847 731.552285,22 731,22 C730.447715,22 730,21.5522847 730,21 C730,20.4477153 730.447715,20 731,20 Z M721,20 C721.552285,20 722,20.4477153 722,21 C722,21.5522847 721.552285,22 721,22 C720.447715,22 720,21.5522847 720,21 C720,20.4477153 720.447715,20 721,20 Z M711,20 C711.552285,20 712,20.4477153 712,21 C712,21.5522847 711.552285,22 711,22 C710.447715,22 710,21.5522847 710,21 C710,20.4477153 710.447715,20 711,20 Z M701,20 C701.552285,20 702,20.4477153 702,21 C702,21.5522847 701.552285,22 701,22 C700.447715,22 700,21.5522847 700,21 C700,20.4477153 700.447715,20 701,20 Z M691,20 C691.552285,20 692,20.4477153 692,21 C692,21.5522847 691.552285,22 691,22 C690.447715,22 690,21.5522847 690,21 C690,20.4477153 690.447715,20 691,20 Z M681,20 C681.552285,20 682,20.4477153 682,21 C682,21.5522847 681.552285,22 681,22 C680.447715,22 680,21.5522847 680,21 C680,20.4477153 680.447715,20 681,20 Z M671,20 C671.552285,20 672,20.4477153 672,21 C672,21.5522847 671.552285,22 671,22 C670.447715,22 670,21.5522847 670,21 C670,20.4477153 670.447715,20 671,20 Z M661,20 C661.552285,20 662,20.4477153 662,21 C662,21.5522847 661.552285,22 661,22 C660.447715,22 660,21.5522847 660,21 C660,20.4477153 660.447715,20 661,20 Z M651,20 C651.552285,20 652,20.4477153 652,21 C652,21.5522847 651.552285,22 651,22 C650.447715,22 650,21.5522847 650,21 C650,20.4477153 650.447715,20 651,20 Z M641,20 C641.552285,20 642,20.4477153 642,21 C642,21.5522847 641.552285,22 641,22 C640.447715,22 640,21.5522847 640,21 C640,20.4477153 640.447715,20 641,20 Z M631,20 C631.552285,20 632,20.4477153 632,21 C632,21.5522847 631.552285,22 631,22 C630.447715,22 630,21.5522847 630,21 C630,20.4477153 630.447715,20 631,20 Z M621,20 C621.552285,20 622,20.4477153 622,21 C622,21.5522847 621.552285,22 621,22 C620.447715,22 620,21.5522847 620,21 C620,20.4477153 620.447715,20 621,20 Z M611,20 C611.552285,20 612,20.4477153 612,21 C612,21.5522847 611.552285,22 611,22 C610.447715,22 610,21.5522847 610,21 C610,20.4477153 610.447715,20 611,20 Z M601,20 C601.552285,20 602,20.4477153 602,21 C602,21.5522847 601.552285,22 601,22 C600.447715,22 600,21.5522847 600,21 C600,20.4477153 600.447715,20 601,20 Z M591,20 C591.552285,20 592,20.4477153 592,21 C592,21.5522847 591.552285,22 591,22 C590.447715,22 590,21.5522847 590,21 C590,20.4477153 590.447715,20 591,20 Z M581,20 C581.552285,20 582,20.4477153 582,21 C582,21.5522847 581.552285,22 581,22 C580.447715,22 580,21.5522847 580,21 C580,20.4477153 580.447715,20 581,20 Z M571,20 C571.552285,20 572,20.4477153 572,21 C572,21.5522847 571.552285,22 571,22 C570.447715,22 570,21.5522847 570,21 C570,20.4477153 570.447715,20 571,20 Z M561,20 C561.552285,20 562,20.4477153 562,21 C562,21.5522847 561.552285,22 561,22 C560.447715,22 560,21.5522847 560,21 C560,20.4477153 560.447715,20 561,20 Z M551,20 C551.552285,20 552,20.4477153 552,21 C552,21.5522847 551.552285,22 551,22 C550.447715,22 550,21.5522847 550,21 C550,20.4477153 550.447715,20 551,20 Z M271,20 C271.552285,20 272,20.4477153 272,21 C272,21.5522847 271.552285,22 271,22 C270.447715,22 270,21.5522847 270,21 C270,20.4477153 270.447715,20 271,20 Z M821,20 C821.552285,20 822,20.4477153 822,21 C822,21.5522847 821.552285,22 821,22 C820.447715,22 820,21.5522847 820,21 C820,20.4477153 820.447715,20 821,20 Z M261,20 C261.552285,20 262,20.4477153 262,21 C262,21.5522847 261.552285,22 261,22 C260.447715,22 260,21.5522847 260,21 C260,20.4477153 260.447715,20 261,20 Z M251,20 C251.552285,20 252,20.4477153 252,21 C252,21.5522847 251.552285,22 251,22 C250.447715,22 250,21.5522847 250,21 C250,20.4477153 250.447715,20 251,20 Z M241,20 C241.552285,20 242,20.4477153 242,21 C242,21.5522847 241.552285,22 241,22 C240.447715,22 240,21.5522847 240,21 C240,20.4477153 240.447715,20 241,20 Z M231,20 C231.552285,20 232,20.4477153 232,21 C232,21.5522847 231.552285,22 231,22 C230.447715,22 230,21.5522847 230,21 C230,20.4477153 230.447715,20 231,20 Z M221,20 C221.552285,20 222,20.4477153 222,21 C222,21.5522847 221.552285,22 221,22 C220.447715,22 220,21.5522847 220,21 C220,20.4477153 220.447715,20 221,20 Z M211,20 C211.552285,20 212,20.4477153 212,21 C212,21.5522847 211.552285,22 211,22 C210.447715,22 210,21.5522847 210,21 C210,20.4477153 210.447715,20 211,20 Z M201,20 C201.552285,20 202,20.4477153 202,21 C202,21.5522847 201.552285,22 201,22 C200.447715,22 200,21.5522847 200,21 C200,20.4477153 200.447715,20 201,20 Z M191,20 C191.552285,20 192,20.4477153 192,21 C192,21.5522847 191.552285,22 191,22 C190.447715,22 190,21.5522847 190,21 C190,20.4477153 190.447715,20 191,20 Z M181,20 C181.552285,20 182,20.4477153 182,21 C182,21.5522847 181.552285,22 181,22 C180.447715,22 180,21.5522847 180,21 C180,20.4477153 180.447715,20 181,20 Z M171,20 C171.552285,20 172,20.4477153 172,21 C172,21.5522847 171.552285,22 171,22 C170.447715,22 170,21.5522847 170,21 C170,20.4477153 170.447715,20 171,20 Z M161,20 C161.552285,20 162,20.4477153 162,21 C162,21.5522847 161.552285,22 161,22 C160.447715,22 160,21.5522847 160,21 C160,20.4477153 160.447715,20 161,20 Z M151,20 C151.552285,20 152,20.4477153 152,21 C152,21.5522847 151.552285,22 151,22 C150.447715,22 150,21.5522847 150,21 C150,20.4477153 150.447715,20 151,20 Z M141,20 C141.552285,20 142,20.4477153 142,21 C142,21.5522847 141.552285,22 141,22 C140.447715,22 140,21.5522847 140,21 C140,20.4477153 140.447715,20 141,20 Z M131,20 C131.552285,20 132,20.4477153 132,21 C132,21.5522847 131.552285,22 131,22 C130.447715,22 130,21.5522847 130,21 C130,20.4477153 130.447715,20 131,20 Z M121,20 C121.552285,20 122,20.4477153 122,21 C122,21.5522847 121.552285,22 121,22 C120.447715,22 120,21.5522847 120,21 C120,20.4477153 120.447715,20 121,20 Z M111,20 C111.552285,20 112,20.4477153 112,21 C112,21.5522847 111.552285,22 111,22 C110.447715,22 110,21.5522847 110,21 C110,20.4477153 110.447715,20 111,20 Z M101,20 C101.552285,20 102,20.4477153 102,21 C102,21.5522847 101.552285,22 101,22 C100.447715,22 100,21.5522847 100,21 C100,20.4477153 100.447715,20 101,20 Z M91,20 C91.5522847,20 92,20.4477153 92,21 C92,21.5522847 91.5522847,22 91,22 C90.4477153,22 90,21.5522847 90,21 C90,20.4477153 90.4477153,20 91,20 Z M81,20 C81.5522847,20 82,20.4477153 82,21 C82,21.5522847 81.5522847,22 81,22 C80.4477153,22 80,21.5522847 80,21 C80,20.4477153 80.4477153,20 81,20 Z M71,20 C71.5522847,20 72,20.4477153 72,21 C72,21.5522847 71.5522847,22 71,22 C70.4477153,22 70,21.5522847 70,21 C70,20.4477153 70.4477153,20 71,20 Z M61,20 C61.5522847,20 62,20.4477153 62,21 C62,21.5522847 61.5522847,22 61,22 C60.4477153,22 60,21.5522847 60,21 C60,20.4477153 60.4477153,20 61,20 Z M51,20 C51.5522847,20 52,20.4477153 52,21 C52,21.5522847 51.5522847,22 51,22 C50.4477153,22 50,21.5522847 50,21 C50,20.4477153 50.4477153,20 51,20 Z M41,20 C41.5522847,20 42,20.4477153 42,21 C42,21.5522847 41.5522847,22 41,22 C40.4477153,22 40,21.5522847 40,21 C40,20.4477153 40.4477153,20 41,20 Z M31,20 C31.5522847,20 32,20.4477153 32,21 C32,21.5522847 31.5522847,22 31,22 C30.4477153,22 30,21.5522847 30,21 C30,20.4477153 30.4477153,20 31,20 Z M21,20 C21.5522847,20 22,20.4477153 22,21 C22,21.5522847 21.5522847,22 21,22 C20.4477153,22 20,21.5522847 20,21 C20,20.4477153 20.4477153,20 21,20 Z M11,20 C11.5522847,20 12,20.4477153 12,21 C12,21.5522847 11.5522847,22 11,22 C10.4477153,22 10,21.5522847 10,21 C10,20.4477153 10.4477153,20 11,20 Z M1,20 C1.55228475,20 2,20.4477153 2,21 C2,21.5522847 1.55228475,22 1,22 C0.44771525,22 0,21.5522847 0,21 C0,20.4477153 0.44771525,20 1,20 Z M551,10 C551.552285,10 552,10.4477153 552,11 C552,11.5522847 551.552285,12 551,12 C550.447715,12 550,11.5522847 550,11 C550,10.4477153 550.447715,10 551,10 Z M1,10 C1.55228475,10 2,10.4477153 2,11 C2,11.5522847 1.55228475,12 1,12 C0.44771525,12 0,11.5522847 0,11 C0,10.4477153 0.44771525,10 1,10 Z M821,10 C821.552285,10 822,10.4477153 822,11 C822,11.5522847 821.552285,12 821,12 C820.447715,12 820,11.5522847 820,11 C820,10.4477153 820.447715,10 821,10 Z M11,10 C11.5522847,10 12,10.4477153 12,11 C12,11.5522847 11.5522847,12 11,12 C10.4477153,12 10,11.5522847 10,11 C10,10.4477153 10.4477153,10 11,10 Z M21,10 C21.5522847,10 22,10.4477153 22,11 C22,11.5522847 21.5522847,12 21,12 C20.4477153,12 20,11.5522847 20,11 C20,10.4477153 20.4477153,10 21,10 Z M31,10 C31.5522847,10 32,10.4477153 32,11 C32,11.5522847 31.5522847,12 31,12 C30.4477153,12 30,11.5522847 30,11 C30,10.4477153 30.4477153,10 31,10 Z M41,10 C41.5522847,10 42,10.4477153 42,11 C42,11.5522847 41.5522847,12 41,12 C40.4477153,12 40,11.5522847 40,11 C40,10.4477153 40.4477153,10 41,10 Z M51,10 C51.5522847,10 52,10.4477153 52,11 C52,11.5522847 51.5522847,12 51,12 C50.4477153,12 50,11.5522847 50,11 C50,10.4477153 50.4477153,10 51,10 Z M61,10 C61.5522847,10 62,10.4477153 62,11 C62,11.5522847 61.5522847,12 61,12 C60.4477153,12 60,11.5522847 60,11 C60,10.4477153 60.4477153,10 61,10 Z M71,10 C71.5522847,10 72,10.4477153 72,11 C72,11.5522847 71.5522847,12 71,12 C70.4477153,12 70,11.5522847 70,11 C70,10.4477153 70.4477153,10 71,10 Z M81,10 C81.5522847,10 82,10.4477153 82,11 C82,11.5522847 81.5522847,12 81,12 C80.4477153,12 80,11.5522847 80,11 C80,10.4477153 80.4477153,10 81,10 Z M91,10 C91.5522847,10 92,10.4477153 92,11 C92,11.5522847 91.5522847,12 91,12 C90.4477153,12 90,11.5522847 90,11 C90,10.4477153 90.4477153,10 91,10 Z M101,10 C101.552285,10 102,10.4477153 102,11 C102,11.5522847 101.552285,12 101,12 C100.447715,12 100,11.5522847 100,11 C100,10.4477153 100.447715,10 101,10 Z M111,10 C111.552285,10 112,10.4477153 112,11 C112,11.5522847 111.552285,12 111,12 C110.447715,12 110,11.5522847 110,11 C110,10.4477153 110.447715,10 111,10 Z M121,10 C121.552285,10 122,10.4477153 122,11 C122,11.5522847 121.552285,12 121,12 C120.447715,12 120,11.5522847 120,11 C120,10.4477153 120.447715,10 121,10 Z M131,10 C131.552285,10 132,10.4477153 132,11 C132,11.5522847 131.552285,12 131,12 C130.447715,12 130,11.5522847 130,11 C130,10.4477153 130.447715,10 131,10 Z M141,10 C141.552285,10 142,10.4477153 142,11 C142,11.5522847 141.552285,12 141,12 C140.447715,12 140,11.5522847 140,11 C140,10.4477153 140.447715,10 141,10 Z M151,10 C151.552285,10 152,10.4477153 152,11 C152,11.5522847 151.552285,12 151,12 C150.447715,12 150,11.5522847 150,11 C150,10.4477153 150.447715,10 151,10 Z M161,10 C161.552285,10 162,10.4477153 162,11 C162,11.5522847 161.552285,12 161,12 C160.447715,12 160,11.5522847 160,11 C160,10.4477153 160.447715,10 161,10 Z M171,10 C171.552285,10 172,10.4477153 172,11 C172,11.5522847 171.552285,12 171,12 C170.447715,12 170,11.5522847 170,11 C170,10.4477153 170.447715,10 171,10 Z M181,10 C181.552285,10 182,10.4477153 182,11 C182,11.5522847 181.552285,12 181,12 C180.447715,12 180,11.5522847 180,11 C180,10.4477153 180.447715,10 181,10 Z M191,10 C191.552285,10 192,10.4477153 192,11 C192,11.5522847 191.552285,12 191,12 C190.447715,12 190,11.5522847 190,11 C190,10.4477153 190.447715,10 191,10 Z M201,10 C201.552285,10 202,10.4477153 202,11 C202,11.5522847 201.552285,12 201,12 C200.447715,12 200,11.5522847 200,11 C200,10.4477153 200.447715,10 201,10 Z M211,10 C211.552285,10 212,10.4477153 212,11 C212,11.5522847 211.552285,12 211,12 C210.447715,12 210,11.5522847 210,11 C210,10.4477153 210.447715,10 211,10 Z M221,10 C221.552285,10 222,10.4477153 222,11 C222,11.5522847 221.552285,12 221,12 C220.447715,12 220,11.5522847 220,11 C220,10.4477153 220.447715,10 221,10 Z M231,10 C231.552285,10 232,10.4477153 232,11 C232,11.5522847 231.552285,12 231,12 C230.447715,12 230,11.5522847 230,11 C230,10.4477153 230.447715,10 231,10 Z M241,10 C241.552285,10 242,10.4477153 242,11 C242,11.5522847 241.552285,12 241,12 C240.447715,12 240,11.5522847 240,11 C240,10.4477153 240.447715,10 241,10 Z M251,10 C251.552285,10 252,10.4477153 252,11 C252,11.5522847 251.552285,12 251,12 C250.447715,12 250,11.5522847 250,11 C250,10.4477153 250.447715,10 251,10 Z M261,10 C261.552285,10 262,10.4477153 262,11 C262,11.5522847 261.552285,12 261,12 C260.447715,12 260,11.5522847 260,11 C260,10.4477153 260.447715,10 261,10 Z M271,10 C271.552285,10 272,10.4477153 272,11 C272,11.5522847 271.552285,12 271,12 C270.447715,12 270,11.5522847 270,11 C270,10.4477153 270.447715,10 271,10 Z M561,10 C561.552285,10 562,10.4477153 562,11 C562,11.5522847 561.552285,12 561,12 C560.447715,12 560,11.5522847 560,11 C560,10.4477153 560.447715,10 561,10 Z M571,10 C571.552285,10 572,10.4477153 572,11 C572,11.5522847 571.552285,12 571,12 C570.447715,12 570,11.5522847 570,11 C570,10.4477153 570.447715,10 571,10 Z M581,10 C581.552285,10 582,10.4477153 582,11 C582,11.5522847 581.552285,12 581,12 C580.447715,12 580,11.5522847 580,11 C580,10.4477153 580.447715,10 581,10 Z M591,10 C591.552285,10 592,10.4477153 592,11 C592,11.5522847 591.552285,12 591,12 C590.447715,12 590,11.5522847 590,11 C590,10.4477153 590.447715,10 591,10 Z M601,10 C601.552285,10 602,10.4477153 602,11 C602,11.5522847 601.552285,12 601,12 C600.447715,12 600,11.5522847 600,11 C600,10.4477153 600.447715,10 601,10 Z M611,10 C611.552285,10 612,10.4477153 612,11 C612,11.5522847 611.552285,12 611,12 C610.447715,12 610,11.5522847 610,11 C610,10.4477153 610.447715,10 611,10 Z M621,10 C621.552285,10 622,10.4477153 622,11 C622,11.5522847 621.552285,12 621,12 C620.447715,12 620,11.5522847 620,11 C620,10.4477153 620.447715,10 621,10 Z M631,10 C631.552285,10 632,10.4477153 632,11 C632,11.5522847 631.552285,12 631,12 C630.447715,12 630,11.5522847 630,11 C630,10.4477153 630.447715,10 631,10 Z M641,10 C641.552285,10 642,10.4477153 642,11 C642,11.5522847 641.552285,12 641,12 C640.447715,12 640,11.5522847 640,11 C640,10.4477153 640.447715,10 641,10 Z M651,10 C651.552285,10 652,10.4477153 652,11 C652,11.5522847 651.552285,12 651,12 C650.447715,12 650,11.5522847 650,11 C650,10.4477153 650.447715,10 651,10 Z M661,10 C661.552285,10 662,10.4477153 662,11 C662,11.5522847 661.552285,12 661,12 C660.447715,12 660,11.5522847 660,11 C660,10.4477153 660.447715,10 661,10 Z M671,10 C671.552285,10 672,10.4477153 672,11 C672,11.5522847 671.552285,12 671,12 C670.447715,12 670,11.5522847 670,11 C670,10.4477153 670.447715,10 671,10 Z M681,10 C681.552285,10 682,10.4477153 682,11 C682,11.5522847 681.552285,12 681,12 C680.447715,12 680,11.5522847 680,11 C680,10.4477153 680.447715,10 681,10 Z M691,10 C691.552285,10 692,10.4477153 692,11 C692,11.5522847 691.552285,12 691,12 C690.447715,12 690,11.5522847 690,11 C690,10.4477153 690.447715,10 691,10 Z M701,10 C701.552285,10 702,10.4477153 702,11 C702,11.5522847 701.552285,12 701,12 C700.447715,12 700,11.5522847 700,11 C700,10.4477153 700.447715,10 701,10 Z M711,10 C711.552285,10 712,10.4477153 712,11 C712,11.5522847 711.552285,12 711,12 C710.447715,12 710,11.5522847 710,11 C710,10.4477153 710.447715,10 711,10 Z M721,10 C721.552285,10 722,10.4477153 722,11 C722,11.5522847 721.552285,12 721,12 C720.447715,12 720,11.5522847 720,11 C720,10.4477153 720.447715,10 721,10 Z M731,10 C731.552285,10 732,10.4477153 732,11 C732,11.5522847 731.552285,12 731,12 C730.447715,12 730,11.5522847 730,11 C730,10.4477153 730.447715,10 731,10 Z M741,10 C741.552285,10 742,10.4477153 742,11 C742,11.5522847 741.552285,12 741,12 C740.447715,12 740,11.5522847 740,11 C740,10.4477153 740.447715,10 741,10 Z M751,10 C751.552285,10 752,10.4477153 752,11 C752,11.5522847 751.552285,12 751,12 C750.447715,12 750,11.5522847 750,11 C750,10.4477153 750.447715,10 751,10 Z M761,10 C761.552285,10 762,10.4477153 762,11 C762,11.5522847 761.552285,12 761,12 C760.447715,12 760,11.5522847 760,11 C760,10.4477153 760.447715,10 761,10 Z M771,10 C771.552285,10 772,10.4477153 772,11 C772,11.5522847 771.552285,12 771,12 C770.447715,12 770,11.5522847 770,11 C770,10.4477153 770.447715,10 771,10 Z M781,10 C781.552285,10 782,10.4477153 782,11 C782,11.5522847 781.552285,12 781,12 C780.447715,12 780,11.5522847 780,11 C780,10.4477153 780.447715,10 781,10 Z M791,10 C791.552285,10 792,10.4477153 792,11 C792,11.5522847 791.552285,12 791,12 C790.447715,12 790,11.5522847 790,11 C790,10.4477153 790.447715,10 791,10 Z M801,10 C801.552285,10 802,10.4477153 802,11 C802,11.5522847 801.552285,12 801,12 C800.447715,12 800,11.5522847 800,11 C800,10.4477153 800.447715,10 801,10 Z M811,10 C811.552285,10 812,10.4477153 812,11 C812,11.5522847 811.552285,12 811,12 C810.447715,12 810,11.5522847 810,11 C810,10.4477153 810.447715,10 811,10 Z M801,0 C801.552285,0 802,0.44771525 802,1 C802,1.55228475 801.552285,2 801,2 C800.447715,2 800,1.55228475 800,1 C800,0.44771525 800.447715,0 801,0 Z M811,0 C811.552285,0 812,0.44771525 812,1 C812,1.55228475 811.552285,2 811,2 C810.447715,2 810,1.55228475 810,1 C810,0.44771525 810.447715,0 811,0 Z M1,0 C1.55228475,0 2,0.44771525 2,1 C2,1.55228475 1.55228475,2 1,2 C0.44771525,2 0,1.55228475 0,1 C0,0.44771525 0.44771525,0 1,0 Z M11,0 C11.5522847,0 12,0.44771525 12,1 C12,1.55228475 11.5522847,2 11,2 C10.4477153,2 10,1.55228475 10,1 C10,0.44771525 10.4477153,0 11,0 Z M21,0 C21.5522847,0 22,0.44771525 22,1 C22,1.55228475 21.5522847,2 21,2 C20.4477153,2 20,1.55228475 20,1 C20,0.44771525 20.4477153,0 21,0 Z M31,0 C31.5522847,0 32,0.44771525 32,1 C32,1.55228475 31.5522847,2 31,2 C30.4477153,2 30,1.55228475 30,1 C30,0.44771525 30.4477153,0 31,0 Z M41,0 C41.5522847,0 42,0.44771525 42,1 C42,1.55228475 41.5522847,2 41,2 C40.4477153,2 40,1.55228475 40,1 C40,0.44771525 40.4477153,0 41,0 Z M51,0 C51.5522847,0 52,0.44771525 52,1 C52,1.55228475 51.5522847,2 51,2 C50.4477153,2 50,1.55228475 50,1 C50,0.44771525 50.4477153,0 51,0 Z M61,0 C61.5522847,0 62,0.44771525 62,1 C62,1.55228475 61.5522847,2 61,2 C60.4477153,2 60,1.55228475 60,1 C60,0.44771525 60.4477153,0 61,0 Z M71,0 C71.5522847,0 72,0.44771525 72,1 C72,1.55228475 71.5522847,2 71,2 C70.4477153,2 70,1.55228475 70,1 C70,0.44771525 70.4477153,0 71,0 Z M81,0 C81.5522847,0 82,0.44771525 82,1 C82,1.55228475 81.5522847,2 81,2 C80.4477153,2 80,1.55228475 80,1 C80,0.44771525 80.4477153,0 81,0 Z M91,0 C91.5522847,0 92,0.44771525 92,1 C92,1.55228475 91.5522847,2 91,2 C90.4477153,2 90,1.55228475 90,1 C90,0.44771525 90.4477153,0 91,0 Z M101,0 C101.552285,0 102,0.44771525 102,1 C102,1.55228475 101.552285,2 101,2 C100.447715,2 100,1.55228475 100,1 C100,0.44771525 100.447715,0 101,0 Z M111,0 C111.552285,0 112,0.44771525 112,1 C112,1.55228475 111.552285,2 111,2 C110.447715,2 110,1.55228475 110,1 C110,0.44771525 110.447715,0 111,0 Z M121,0 C121.552285,0 122,0.44771525 122,1 C122,1.55228475 121.552285,2 121,2 C120.447715,2 120,1.55228475 120,1 C120,0.44771525 120.447715,0 121,0 Z M131,0 C131.552285,0 132,0.44771525 132,1 C132,1.55228475 131.552285,2 131,2 C130.447715,2 130,1.55228475 130,1 C130,0.44771525 130.447715,0 131,0 Z M141,0 C141.552285,0 142,0.44771525 142,1 C142,1.55228475 141.552285,2 141,2 C140.447715,2 140,1.55228475 140,1 C140,0.44771525 140.447715,0 141,0 Z M151,0 C151.552285,0 152,0.44771525 152,1 C152,1.55228475 151.552285,2 151,2 C150.447715,2 150,1.55228475 150,1 C150,0.44771525 150.447715,0 151,0 Z M161,0 C161.552285,0 162,0.44771525 162,1 C162,1.55228475 161.552285,2 161,2 C160.447715,2 160,1.55228475 160,1 C160,0.44771525 160.447715,0 161,0 Z M171,0 C171.552285,0 172,0.44771525 172,1 C172,1.55228475 171.552285,2 171,2 C170.447715,2 170,1.55228475 170,1 C170,0.44771525 170.447715,0 171,0 Z M181,0 C181.552285,0 182,0.44771525 182,1 C182,1.55228475 181.552285,2 181,2 C180.447715,2 180,1.55228475 180,1 C180,0.44771525 180.447715,0 181,0 Z M191,0 C191.552285,0 192,0.44771525 192,1 C192,1.55228475 191.552285,2 191,2 C190.447715,2 190,1.55228475 190,1 C190,0.44771525 190.447715,0 191,0 Z M201,0 C201.552285,0 202,0.44771525 202,1 C202,1.55228475 201.552285,2 201,2 C200.447715,2 200,1.55228475 200,1 C200,0.44771525 200.447715,0 201,0 Z M211,0 C211.552285,0 212,0.44771525 212,1 C212,1.55228475 211.552285,2 211,2 C210.447715,2 210,1.55228475 210,1 C210,0.44771525 210.447715,0 211,0 Z M221,0 C221.552285,0 222,0.44771525 222,1 C222,1.55228475 221.552285,2 221,2 C220.447715,2 220,1.55228475 220,1 C220,0.44771525 220.447715,0 221,0 Z M231,0 C231.552285,0 232,0.44771525 232,1 C232,1.55228475 231.552285,2 231,2 C230.447715,2 230,1.55228475 230,1 C230,0.44771525 230.447715,0 231,0 Z M241,0 C241.552285,0 242,0.44771525 242,1 C242,1.55228475 241.552285,2 241,2 C240.447715,2 240,1.55228475 240,1 C240,0.44771525 240.447715,0 241,0 Z M251,0 C251.552285,0 252,0.44771525 252,1 C252,1.55228475 251.552285,2 251,2 C250.447715,2 250,1.55228475 250,1 C250,0.44771525 250.447715,0 251,0 Z M261,0 C261.552285,0 262,0.44771525 262,1 C262,1.55228475 261.552285,2 261,2 C260.447715,2 260,1.55228475 260,1 C260,0.44771525 260.447715,0 261,0 Z M821,0 C821.552285,0 822,0.44771525 822,1 C822,1.55228475 821.552285,2 821,2 C820.447715,2 820,1.55228475 820,1 C820,0.44771525 820.447715,0 821,0 Z M551,0 C551.552285,0 552,0.44771525 552,1 C552,1.55228475 551.552285,2 551,2 C550.447715,2 550,1.55228475 550,1 C550,0.44771525 550.447715,0 551,0 Z M561,0 C561.552285,0 562,0.44771525 562,1 C562,1.55228475 561.552285,2 561,2 C560.447715,2 560,1.55228475 560,1 C560,0.44771525 560.447715,0 561,0 Z M571,0 C571.552285,0 572,0.44771525 572,1 C572,1.55228475 571.552285,2 571,2 C570.447715,2 570,1.55228475 570,1 C570,0.44771525 570.447715,0 571,0 Z M581,0 C581.552285,0 582,0.44771525 582,1 C582,1.55228475 581.552285,2 581,2 C580.447715,2 580,1.55228475 580,1 C580,0.44771525 580.447715,0 581,0 Z M591,0 C591.552285,0 592,0.44771525 592,1 C592,1.55228475 591.552285,2 591,2 C590.447715,2 590,1.55228475 590,1 C590,0.44771525 590.447715,0 591,0 Z M601,0 C601.552285,0 602,0.44771525 602,1 C602,1.55228475 601.552285,2 601,2 C600.447715,2 600,1.55228475 600,1 C600,0.44771525 600.447715,0 601,0 Z M611,0 C611.552285,0 612,0.44771525 612,1 C612,1.55228475 611.552285,2 611,2 C610.447715,2 610,1.55228475 610,1 C610,0.44771525 610.447715,0 611,0 Z M621,0 C621.552285,0 622,0.44771525 622,1 C622,1.55228475 621.552285,2 621,2 C620.447715,2 620,1.55228475 620,1 C620,0.44771525 620.447715,0 621,0 Z M631,0 C631.552285,0 632,0.44771525 632,1 C632,1.55228475 631.552285,2 631,2 C630.447715,2 630,1.55228475 630,1 C630,0.44771525 630.447715,0 631,0 Z M641,0 C641.552285,0 642,0.44771525 642,1 C642,1.55228475 641.552285,2 641,2 C640.447715,2 640,1.55228475 640,1 C640,0.44771525 640.447715,0 641,0 Z M651,0 C651.552285,0 652,0.44771525 652,1 C652,1.55228475 651.552285,2 651,2 C650.447715,2 650,1.55228475 650,1 C650,0.44771525 650.447715,0 651,0 Z M661,0 C661.552285,0 662,0.44771525 662,1 C662,1.55228475 661.552285,2 661,2 C660.447715,2 660,1.55228475 660,1 C660,0.44771525 660.447715,0 661,0 Z M671,0 C671.552285,0 672,0.44771525 672,1 C672,1.55228475 671.552285,2 671,2 C670.447715,2 670,1.55228475 670,1 C670,0.44771525 670.447715,0 671,0 Z M681,0 C681.552285,0 682,0.44771525 682,1 C682,1.55228475 681.552285,2 681,2 C680.447715,2 680,1.55228475 680,1 C680,0.44771525 680.447715,0 681,0 Z M691,0 C691.552285,0 692,0.44771525 692,1 C692,1.55228475 691.552285,2 691,2 C690.447715,2 690,1.55228475 690,1 C690,0.44771525 690.447715,0 691,0 Z M701,0 C701.552285,0 702,0.44771525 702,1 C702,1.55228475 701.552285,2 701,2 C700.447715,2 700,1.55228475 700,1 C700,0.44771525 700.447715,0 701,0 Z M711,0 C711.552285,0 712,0.44771525 712,1 C712,1.55228475 711.552285,2 711,2 C710.447715,2 710,1.55228475 710,1 C710,0.44771525 710.447715,0 711,0 Z M721,0 C721.552285,0 722,0.44771525 722,1 C722,1.55228475 721.552285,2 721,2 C720.447715,2 720,1.55228475 720,1 C720,0.44771525 720.447715,0 721,0 Z M731,0 C731.552285,0 732,0.44771525 732,1 C732,1.55228475 731.552285,2 731,2 C730.447715,2 730,1.55228475 730,1 C730,0.44771525 730.447715,0 731,0 Z M741,0 C741.552285,0 742,0.44771525 742,1 C742,1.55228475 741.552285,2 741,2 C740.447715,2 740,1.55228475 740,1 C740,0.44771525 740.447715,0 741,0 Z M751,0 C751.552285,0 752,0.44771525 752,1 C752,1.55228475 751.552285,2 751,2 C750.447715,2 750,1.55228475 750,1 C750,0.44771525 750.447715,0 751,0 Z M761,0 C761.552285,0 762,0.44771525 762,1 C762,1.55228475 761.552285,2 761,2 C760.447715,2 760,1.55228475 760,1 C760,0.44771525 760.447715,0 761,0 Z M771,0 C771.552285,0 772,0.44771525 772,1 C772,1.55228475 771.552285,2 771,2 C770.447715,2 770,1.55228475 770,1 C770,0.44771525 770.447715,0 771,0 Z M781,0 C781.552285,0 782,0.44771525 782,1 C782,1.55228475 781.552285,2 781,2 C780.447715,2 780,1.55228475 780,1 C780,0.44771525 780.447715,0 781,0 Z M791,0 C791.552285,0 792,0.44771525 792,1 C792,1.55228475 791.552285,2 791,2 C790.447715,2 790,1.55228475 790,1 C790,0.44771525 790.447715,0 791,0 Z M271,0 C271.552285,0 272,0.44771525 272,1 C272,1.55228475 271.552285,2 271,2 C270.447715,2 270,1.55228475 270,1 C270,0.44771525 270.447715,0 271,0 Z" id="Combined-Shape"></path>
            </g>
        </g>
    </g>
</svg>