<?xml version="1.0" encoding="UTF-8"?>
<svg width="27px" height="33px" viewBox="0 0 27 33" version="1.1" xmlns="http://www.w3.org/2000/svg" xmlns:xlink="http://www.w3.org/1999/xlink">
    <!-- Generator: Sketch 58 (84663) - https://sketch.com -->
    <title>iconfinder_8_3791023</title>
    <desc>Created with Sketch.</desc>
    <g id="Symbols" stroke="none" stroke-width="1" fill="none" fill-rule="evenodd">
        <g id="signup-button" transform="translate(-23.000000, -9.000000)" fill="#000000" fill-rule="nonzero">
            <g id="signup">
                <g id="iconfinder_8_3791023" transform="translate(23.000000, 9.000000)">
                    <path d="M2.88730909,23.8695652 L3.32032436,23.8695652 L3.32032436,32.4927536 C3.32032436,32.7971014 3.53683199,33 3.86159344,33 L11.8723759,33 C12.1971374,33 12.413645,32.7971014 12.413645,32.4927536 L12.413645,23.8695652 L12.8466603,23.8695652 C14.2539599,23.8695652 15.390625,22.7536232 15.390625,21.384058 L15.390625,16.7173913 C15.390625,14.1304348 13.2796756,12.0507246 10.6815839,12.0507246 L10.627457,12.0507246 L10.627457,11.3405797 C11.3311068,10.6811594 11.7641221,9.76811594 11.7641221,8.75362319 C11.7641221,6.67391304 9.97793413,5 7.75873087,5 C5.53952761,5 3.75333963,6.67391304 3.75333963,8.75362319 C3.75333963,9.86956522 4.29460871,10.9347826 5.16063925,11.5942029 L5.16063925,12.0507246 L5.10651234,12.0507246 C2.50842073,12.0507246 0.397471285,14.1304348 0.397471285,16.7173913 L0.397471285,21.384058 C0.289217468,22.7536232 1.48000946,23.8695652 2.88730909,23.8695652 Z M4.78175089,8.75362319 C4.78175089,7.23188406 6.0807967,6.01449275 7.70460396,6.01449275 C9.32841122,6.01449275 10.627457,7.23188406 10.627457,8.75362319 C10.627457,10.2753623 9.32841122,11.4927536 7.70460396,11.4927536 C6.0807967,11.4927536 4.78175089,10.2753623 4.78175089,8.75362319 Z M9.49079195,12.1014493 L9.49079195,12.3043478 C9.49079195,13.1666667 8.73301523,13.826087 7.86698469,13.826087 C6.94682724,13.826087 6.24317743,13.115942 6.24317743,12.3043478 L6.24317743,12.2028986 C6.73031961,12.4057971 7.21746178,12.5072464 7.75873087,12.5072464 C8.35412687,12.5072464 8.94952286,12.3550725 9.49079195,12.1014493 Z M1.37175564,16.7173913 C1.37175564,14.6884058 2.9955629,13.0652174 4.99825853,13.0652174 L5.21476616,13.0652174 C5.53952761,14.0797101 6.56793888,14.8405797 7.81285778,14.8405797 C9.05777668,14.8405797 10.032061,14.0797101 10.4109494,13.0652174 L10.627457,13.0652174 C12.6301527,13.0652174 14.2539599,14.6884058 14.2539599,16.7173913 L14.2539599,21.384058 C14.2539599,22.1956522 13.604437,22.8550725 12.7925334,22.8550725 L12.413645,22.8550725 L12.413645,18.8985507 C12.413645,18.5942029 12.1971374,18.3913043 11.8723759,18.3913043 C11.5476145,18.3913043 11.3311068,18.5942029 11.3311068,18.8985507 L11.3311068,31.9855072 L8.35412687,31.9855072 L8.35412687,24.0217391 C8.35412687,23.7173913 8.13761923,23.5144928 7.81285778,23.5144928 C7.48809633,23.5144928 7.27158869,23.7173913 7.27158869,24.0217391 L7.27158869,31.9855072 L4.29460871,31.9855072 L4.29460871,18.8985507 C4.29460871,18.5942029 4.07810108,18.3913043 3.75333963,18.3913043 C3.42857817,18.3913043 3.21207054,18.5942029 3.21207054,18.8985507 L3.21207054,22.8550725 L2.77905527,22.8550725 C1.96715164,22.8550725 1.31762873,22.1956522 1.31762873,21.384058 L1.31762873,16.7173913 L1.37175564,16.7173913 Z" id="Shape"></path>
                    <path d="M13.1077638,12.9854401 L17.5747985,12.0339208 C19.5402937,12.7055815 21.7440308,12.4257229 23.5308447,11.3062884 C25.3176585,10.1308821 26.3897469,8.22784351 26.3897469,6.21286143 C26.4493073,2.79858623 23.4712842,0 19.838096,0 C16.2049079,0 13.2268848,2.79858623 13.2268848,6.21286143 C13.2268848,7.61215454 13.7033685,8.95547593 14.6563358,10.0749104 L12.5717197,12.0898925 C12.3930383,12.2578077 12.3334778,12.5376663 12.4525988,12.7615532 C12.6312801,12.9294684 12.869522,13.0414118 13.1077638,12.9854401 Z M14.418094,6.21286143 C14.418094,3.4142752 16.8600729,1.11943449 19.838096,1.11943449 C22.8161191,1.11943449 25.2580981,3.4142752 25.2580981,6.21286143 C25.2580981,7.89201316 24.4242516,9.45922145 22.8756796,10.4107408 C21.386668,11.3622601 19.5402937,11.586147 17.8726008,10.970458 C17.7534799,10.9144863 17.6343589,10.9144863 17.515238,10.970458 L14.8350172,11.5301753 L15.9071055,10.5226842 C16.1453474,10.2987973 16.1453474,9.96296697 15.9071055,9.73908007 C14.9541382,8.73158903 14.418094,7.50021109 14.418094,6.21286143 Z" id="Shape"></path>
                    <path d="M17.8713942,5.98076923 L19.4098558,5.98076923 L19.4098558,7.51923077 C19.4098558,7.80769231 19.6021635,8 19.890625,8 C20.1790865,8 20.3713942,7.80769231 20.3713942,7.51923077 L20.3713942,5.98076923 L21.9098558,5.98076923 C22.1983173,5.98076923 22.390625,5.78846154 22.390625,5.5 C22.390625,5.21153846 22.1983173,5.01923077 21.9098558,5.01923077 L20.3713942,5.01923077 L20.3713942,3.48076923 C20.3713942,3.19230769 20.1790865,3 19.890625,3 C19.6021635,3 19.4098558,3.19230769 19.4098558,3.48076923 L19.4098558,5.01923077 L17.8713942,5.01923077 C17.5829327,5.01923077 17.390625,5.21153846 17.390625,5.5 C17.390625,5.78846154 17.5829327,5.98076923 17.8713942,5.98076923 Z" id="Path"></path>
                </g>
            </g>
        </g>
    </g>
</svg>