<?xml version="1.0" encoding="UTF-8"?>
<svg width="38px" height="44px" viewBox="0 0 38 44" version="1.1" xmlns="http://www.w3.org/2000/svg" xmlns:xlink="http://www.w3.org/1999/xlink">
    <!-- Generator: Sketch 58 (84663) - https://sketch.com -->
    <title>iconfinder_245_-_Reading_1739067</title>
    <desc>Created with Sketch.</desc>
    <g id="Admin" stroke="none" stroke-width="1" fill="none" fill-rule="evenodd">
        <g id="Admin-HomePage" transform="translate(-200.000000, -604.000000)" fill="#000000" fill-rule="nonzero">
            <g id="student" transform="translate(98.000000, 494.000000)">
                <g id="student-list" transform="translate(0.000000, 65.000000)">
                    <g id="iconfinder_245_-_Reading_1739067" transform="translate(102.000000, 44.000000)">
                        <path d="M28.1238155,9.28209602 C28.1238155,8.90497195 28.4323716,8.59641589 28.8094957,8.59641589 C29.1866197,8.59641589 29.4951758,8.90497195 29.4951758,9.28209602 C29.4951758,9.98491816 29.5123178,10.7220243 29.5208888,11.4591305 C29.5808858,14.4932651 29.6494538,17.6816777 28.6295046,20.5186792 C28.4323716,21.0586524 28.2352386,21.5900545 28.0295345,22.0957436 C27.8238305,22.6014327 27.6095554,23.0899798 27.3867094,23.5699558 C27.2324314,23.9127959 26.8210233,24.0670739 26.4781832,23.9042249 C26.1353431,23.7499469 25.9810651,23.3385388 26.1439141,22.9956987 C26.3496182,22.5500066 26.5553222,22.0786016 26.7524553,21.5814835 C26.9495883,21.1015074 27.1381503,20.5872473 27.3352834,20.0558452 C28.2695226,17.4416896 28.2095256,14.381842 28.1495285,11.4762725 C28.1323865,10.7305953 28.1152445,9.99348916 28.1238155,9.26495402 L28.1238155,9.28209602 Z M11.5560693,22.7985657 C11.7103473,23.1414058 11.5560693,23.5528138 11.2132292,23.7070919 C10.8703891,23.8613699 10.458981,23.7070919 10.304703,23.3642518 C10.10757,22.9357017 9.91900794,22.4900096 9.7218749,22.0014625 C9.54188386,21.5557704 9.35332183,21.0672234 9.17333079,20.5529633 C8.14481059,17.6902487 8.2133786,14.5018361 8.27337561,11.4677015 C8.29051762,10.7220243 8.30765962,9.98491816 8.29908862,9.28209602 C8.29908862,8.90497195 8.60764468,8.59641589 8.98476875,8.59641589 C9.36189283,8.59641589 9.67044889,8.90497195 9.67044889,9.28209602 C9.67044889,10.0106312 9.65330689,10.7477373 9.64473588,11.4934145 C9.58473887,14.407555 9.52474186,17.4674026 10.467552,20.0901292 C10.6389721,20.5529633 10.8103921,21.0243683 10.9989542,21.4957734 C11.1789452,21.9414655 11.3675072,22.3700156 11.5560693,22.7985657 Z" id="Shape"></path>
                        <path d="M5.34209303,7.00220957 L18.8928467,11.6305505 L32.4521714,7.00220957 L18.8928467,2.37386866 L5.34209303,7.00220957 Z M18.6785717,13.0019108 L3.01078057,7.6536057 L3.01078057,7.6536057 C2.81364753,7.58503769 2.6507985,7.43075966 2.58223049,7.22505562 C2.46223646,6.86507354 2.6507985,6.47937847 3.01078057,6.35938444 L18.6785717,1.01107939 L18.6785717,1.01107939 C18.8157077,0.968224378 18.9699857,0.959653376 19.1156928,1.01107939 L34.7920549,6.35938444 L34.7920549,6.35938444 C34.9891879,6.42795246 35.1520369,6.58223049 35.2206049,6.78793453 C35.340599,7.1479166 35.1520369,7.53361168 34.7920549,7.6536057 L19.1156928,13.0019108 L19.1156928,13.0019108 C18.9785567,13.0447658 18.8242787,13.0533368 18.6785717,13.0019108 Z" id="Shape"></path>
                        <path d="M2.92507056,7.1393456 C2.92507056,6.76222152 3.23362662,6.45366546 3.61075069,6.45366546 C3.98787477,6.45366546 4.29643083,6.76222152 4.29643083,7.1393456 L4.29643083,13.6361649 C4.29643083,14.013289 3.98787477,14.321845 3.61075069,14.321845 C3.23362662,14.321845 2.92507056,14.013289 2.92507056,13.6361649 L2.92507056,7.1393456 Z" id="Path"></path>
                        <path d="M4.31357283,18.3844998 L3.61075069,16.0274744 L2.90792855,18.3844998 L4.31357283,18.3844998 Z M4.26214682,13.4304608 L5.87349514,18.8387629 C5.89920814,18.9073309 5.91635015,18.9930409 5.91635015,19.07018 C5.91635015,19.447304 5.60779409,19.7558601 5.23067001,19.7558601 L1.98226037,19.7558601 L1.98226037,19.7558601 C1.91369236,19.7558601 1.85369534,19.7472891 1.78512733,19.7301471 C1.42514526,19.6187241 1.21944122,19.2416 1.32229324,18.8816179 L2.94221256,13.4476028 C3.00220957,13.2333278 3.17362961,13.0447658 3.40504665,12.9761978 C3.76502872,12.8647747 4.1507238,13.0704788 4.25357582,13.4390318 L4.26214682,13.4304608 Z" id="Shape"></path>
                        <path d="M29.3151848,14.3647 C29.2894718,14.390413 20.504195,22.1471696 8.56478967,14.5446911 L9.30189582,13.3961768 C20.37563,20.4501112 28.4066586,13.3618928 28.4238006,13.3361798 L29.3151848,14.373271 L29.3151848,14.3647 Z" id="Path"></path>
                        <path d="M4.54498988,28.7982669 C5.60779409,28.7982669 6.56774628,29.312527 7.25342641,30.1524851 C7.90482254,30.9495883 8.30765962,32.0466765 8.30765962,33.2551878 C8.30765962,34.455128 7.90482254,35.5522162 7.25342641,36.3578904 C6.56774628,37.1978485 5.60779409,37.7121086 4.54498988,37.7121086 C3.48218567,37.7121086 2.52223348,37.1978485 1.83655334,36.3578904 C1.18515721,35.5607872 0.782320132,34.463699 0.782320132,33.2551878 C0.782320132,32.0552475 1.18515721,30.9581593 1.83655334,30.1524851 C2.52223348,29.312527 3.47361466,28.7982669 4.54498988,28.7982669 Z M6.20776421,31.0095853 C5.77064312,30.4781832 5.187815,30.1524851 4.54498988,30.1524851 C3.90216475,30.1524851 3.31933663,30.4781832 2.88221555,31.0095853 C2.41938146,31.5752714 2.1279674,32.3723746 2.1279674,33.2551878 C2.1279674,34.1380009 2.41081045,34.9265331 2.88221555,35.5007902 C3.31933663,36.0321923 3.90216475,36.3578904 4.54498988,36.3578904 C5.187815,36.3578904 5.77064312,36.0321923 6.20776421,35.5007902 C6.6705983,34.9351041 6.96201235,34.1380009 6.96201235,33.2551878 C6.96201235,32.3723746 6.6791693,31.5838424 6.20776421,31.0095853 Z" id="Shape"></path>
                        <path d="M5.09353398,21.6843355 L19.4156778,25.1470202 L19.4156778,25.1470202 C19.7328049,25.2241592 19.9385089,25.5070022 19.9385089,25.8155583 L19.9385089,44.1746439 C19.9385089,44.551768 19.6385239,44.8517531 19.2613998,44.8517531 C19.1842608,44.8517531 19.1156928,44.8431821 19.0471247,44.817469 L4.72498091,41.3547844 L4.72498091,41.3547844 C4.40785385,41.2776453 4.20214981,40.9948023 4.20214981,40.6862462 L4.20214981,37.0007155 C4.20214981,36.6407334 4.48499286,36.3493194 4.83640393,36.3236064 C5.40209005,36.2378964 5.91635015,35.8779143 6.29347422,35.3636542 C6.7048823,34.8065391 6.94487035,34.0608619 6.94487035,33.2466168 C6.94487035,32.4238006 6.6963113,31.6866945 6.29347422,31.1295793 C5.90777915,30.5981772 5.37637704,30.2381952 4.78497792,30.1610562 L4.87068794,29.492518 L4.78497792,30.1610562 C4.44213786,30.1182011 4.19357881,29.8182161 4.19357881,29.483947 L4.19357881,22.3185896 C4.19357881,21.9414655 4.49356387,21.6414805 4.87068794,21.6414805 C4.94782696,21.6414805 5.01639497,21.6500515 5.08496298,21.6757645 L5.09353398,21.6843355 Z M18.5757197,26.3298184 L5.55636808,23.1842608 L5.55636808,28.9611159 C6.27633222,29.201104 6.91058634,29.6810801 7.39056244,30.3324762 C7.96481955,31.1124373 8.30765962,32.1409575 8.30765962,33.2551878 C8.30765962,34.369418 7.95624855,35.3979382 7.39056244,36.1778993 C6.91915735,36.8292955 6.28490322,37.3092716 5.55636808,37.5492596 L5.55636808,40.1805571 L18.5757197,43.3261148 L18.5757197,26.3469604 L18.5757197,26.3298184 Z" id="Shape"></path>
                        <path d="M32.9492895,23.1842608 L19.9299379,26.3298184 L19.9299379,43.3089728 L32.9492895,40.1634151 L32.9492895,37.5321176 C32.2293254,37.2921296 31.5950712,36.8121535 31.1150951,36.1607573 C30.540838,35.3807962 30.1979979,34.352276 30.1979979,33.2380458 C30.1979979,32.1238155 30.549409,31.0952953 31.1150951,30.3153342 C31.5865002,29.6639381 32.2207543,29.183962 32.9492895,28.9439739 L32.9492895,23.1671188 L32.9492895,23.1842608 Z M19.0985508,25.1384492 L33.4206946,21.6757645 C33.4892626,21.6500515 33.5578306,21.6414805 33.6349696,21.6414805 C34.0120937,21.6414805 34.3120788,21.9414655 34.3120788,22.3185896 L34.3120788,29.483947 C34.3120788,29.8182161 34.0635197,30.1182011 33.7206796,30.1610562 L33.6349696,29.492518 L33.7206796,30.1610562 C33.1378515,30.2381952 32.6064494,30.5981772 32.2121833,31.1295793 C31.8007753,31.6866945 31.5607872,32.4323716 31.5607872,33.2466168 C31.5607872,34.0694329 31.8093463,34.8065391 32.2121833,35.3636542 C32.5893074,35.8779143 33.1035675,36.2293254 33.6692536,36.3236064 C34.0206647,36.3493194 34.3035078,36.6407334 34.3035078,37.0007155 L34.3035078,40.6862462 C34.3120788,40.9948023 34.0978037,41.2776453 33.7806767,41.3547844 L33.7806767,41.3547844 L19.4585328,44.817469 C19.3899648,44.8431821 19.3213968,44.8517531 19.2442578,44.8517531 C18.8671337,44.8517531 18.5671486,44.551768 18.5671486,44.1746439 L18.5671486,25.8155583 C18.5585776,25.5070022 18.7728527,25.2241592 19.0899798,25.1470202 L19.0899798,25.1470202 L19.0985508,25.1384492 Z" id="Shape"></path>
                        <path d="M33.9692387,30.1524851 C33.3264136,30.1524851 32.7435855,30.4781832 32.3064644,31.0095853 C31.8436303,31.5752714 31.5522162,32.3723746 31.5522162,33.2551878 C31.5522162,34.1380009 31.8350593,34.9265331 32.3064644,35.5007902 C32.7435855,36.0321923 33.3264136,36.3578904 33.9692387,36.3578904 C34.6120638,36.3578904 35.1948919,36.0321923 35.632013,35.5007902 C36.0948471,34.9351041 36.3862612,34.1380009 36.3862612,33.2551878 C36.3862612,32.3723746 36.1034181,31.5838424 35.632013,31.0095853 C35.1948919,30.4781832 34.6120638,30.1524851 33.9692387,30.1524851 Z M31.2608022,30.1524851 C31.9464823,29.312527 32.9064345,28.7982669 33.9692387,28.7982669 C35.0320429,28.7982669 35.9919951,29.312527 36.6776752,30.1524851 C37.3290714,30.9495883 37.7319084,32.0466765 37.7319084,33.2551878 C37.7319084,34.455128 37.3290714,35.5522162 36.6776752,36.3578904 C35.9919951,37.1978485 35.0406139,37.7121086 33.9692387,37.7121086 C32.9064345,37.7121086 31.9464823,37.1978485 31.2608022,36.3578904 C30.609406,35.5607872 30.206569,34.463699 30.206569,33.2551878 C30.206569,32.0552475 30.609406,30.9581593 31.2608022,30.1524851 Z" id="Shape"></path>
                    </g>
                </g>
            </g>
        </g>
    </g>
</svg>