<?xml version="1.0" encoding="UTF-8"?>
<svg width="55px" height="42px" viewBox="0 0 55 42" version="1.1" xmlns="http://www.w3.org/2000/svg" xmlns:xlink="http://www.w3.org/1999/xlink">
    <!-- Generator: Sketch 58 (84663) - https://sketch.com -->
    <title>iconfinder_cell-2-8_234717</title>
    <desc>Created with Sketch.</desc>
    <g id="Admin" stroke="none" stroke-width="1" fill="none" fill-rule="evenodd">
        <g id="Admin-HomePage" transform="translate(-190.000000, -926.000000)" stroke="#231F20" stroke-width="2">
            <g id="tutor" transform="translate(98.000000, 812.000000)">
                <g id="tutor-list" transform="translate(0.000000, 67.000000)">
                    <g id="iconfinder_cell-2-8_234717" transform="translate(93.000000, 48.000000)">
                        <path d="M9.09090909,9.09090909 L9.09090909,40 L18.1818182,40 L18.1818182,38.1818182 C18.1818182,36.3636364 19.0909091,34.5454545 21.8181818,34.5454545 C24.5454545,34.5454545 25.4545455,36.3636364 25.4545455,38.1818182 L25.4545455,40 L36.3636364,40 L36.3636364,38.1818182 C36.3636364,36.3636364 37.2727273,34.5454545 40,34.5454545 C42.7272727,34.5454545 43.6363636,36.3636364 43.6363636,38.1818182 L43.6363636,40 L52.7272727,40 L52.7272727,9.09090909 L9.09090909,9.09090909 Z" id="Path" stroke-linejoin="round"></path>
                        <polyline id="Path" stroke-linejoin="round" points="43.6363636 5.45454545 43.6363636 0 0 0 0 30.9090909 5.45454545 30.9090909"></polyline>
                        <circle id="Oval" cx="22.7272727" cy="19.2881636" r="3.43909091"></circle>
                        <path d="M22.7272727,22.7272727 C17.8145455,22.7272727 16.3636364,26.1436364 16.3636364,29.0909091 L29.0909091,29.0909091 C29.0909091,26.1436327 27.6390909,22.7272727 22.7272727,22.7272727 Z" id="Path"></path>
                        <path d="M35.5336418,27.2727273 L46.3636364,27.2727273" id="Path"></path>
                        <path d="M35.4545455,21.8181818 L46.3636364,21.8181818" id="Path"></path>
                        <path d="M35.5336418,16.3636364 L40.9090909,16.3636364" id="Path"></path>
                    </g>
                </g>
            </g>
        </g>
    </g>
</svg>